<?xml version="1.0" encoding="UTF-8"?>
<svg version="1.1" xmlns="http://www.w3.org/2000/svg" width="300" height="104">
<path d="M0 0 C99 0 198 0 300 0 C300 34.32 300 68.64 300 104 C201 104 102 104 0 104 C0 69.68 0 35.36 0 0 Z " fill="#E5E5E5" transform="translate(0,0)"/>
<path d="M0 0 C43.56 0 87.12 0 132 0 C132 1.98 132 3.96 132 6 C130.87207031 5.98952637 129.74414062 5.97905273 128.58203125 5.96826172 C124.31774181 5.93151839 120.05346572 5.9089061 115.7890625 5.89013672 C113.95830924 5.88020091 112.12757132 5.86664763 110.296875 5.84912109 C89.31736854 5.45945812 89.31736854 5.45945812 69 10 C66.78261427 12.86359528 66.46266125 16.22403247 65.875 19.75 C65.70742187 20.73484375 65.53984375 21.7196875 65.3671875 22.734375 C65.24601562 23.48203125 65.12484375 24.2296875 65 25 C65.92111572 24.78065796 65.92111572 24.78065796 66.86083984 24.55688477 C69.69736543 23.88544054 72.53612389 23.22393262 75.375 22.5625 C76.34050781 22.33240234 77.30601563 22.10230469 78.30078125 21.86523438 C84.52562374 20.42391179 90.62632364 19.46101118 97 19 C97.27294111 25.29525459 96.22064629 31.1370556 95.0625 37.3125 C93.15181082 47.59511349 91.81895956 57.59227825 91.875 68.0625 C91.87113281 68.81982422 91.86726563 69.57714844 91.86328125 70.35742188 C91.53241809 73.9761173 91.53241809 73.9761173 93 77 C93.07319621 79.69654854 93.09242537 82.36691458 93.0625 85.0625 C93.05798828 85.82111328 93.05347656 86.57972656 93.04882812 87.36132812 C93.0370068 89.24091871 93.01907078 91.12046899 93 93 C92.01 93 91.02 93 90 93 C90.12568359 93.93972656 90.12568359 93.93972656 90.25390625 94.8984375 C90.35574219 95.71570313 90.45757812 96.53296875 90.5625 97.375 C90.66691406 98.18710938 90.77132812 98.99921875 90.87890625 99.8359375 C91 102 91 102 90 104 C60.3 104 30.6 104 0 104 C0 69.68 0 35.36 0 0 Z " fill="#EB9636" transform="translate(0,0)"/>
<path d="M0 0 C20.46 0 40.92 0 62 0 C62 9 62 9 60.5 11.5625 C60.005 12.036875 59.51 12.51125 59 13 C58.071875 12.835 57.14375 12.67 56.1875 12.5 C48.72696576 11.47304387 39.489524 10.40385605 33 15 C28.3176153 20.3512968 27.53102172 26.53482742 26.25 33.375 C26.02957031 34.49261719 25.80914063 35.61023437 25.58203125 36.76171875 C25.04261547 39.50570338 24.51570594 42.25147832 24 45 C24.86238281 44.72285156 25.72476562 44.44570313 26.61328125 44.16015625 C34.13382419 41.92861183 41.27941116 40.55617659 49.125 40.125 C49.92977783 40.07609619 50.73455566 40.02719238 51.5637207 39.97680664 C55.87471914 39.80207936 59.06957269 39.96375453 63 42 C63 45.3 63 48.6 63 52 C58.8003231 54.09983845 58.15234789 54.13659264 53.8125 53.5 C48.45096008 52.94013404 43.51175282 53.17156934 38.1875 53.8125 C37.48278564 53.895 36.77807129 53.9775 36.05200195 54.0625 C31.53787941 54.64984134 27.36030331 55.70339789 23 57 C22.34 57 21.68 57 21 57 C20.95101563 58.07636719 20.90203125 59.15273438 20.8515625 60.26171875 C20.45980143 68.14046908 19.8022138 75.78849057 18.4765625 83.57421875 C17.53420145 90.34840434 17.33305135 97.17244723 17 104 C11.39 104 5.78 104 0 104 C0 69.68 0 35.36 0 0 Z " fill="#E7E4E2" transform="translate(0,0)"/>
<path d="M0 0 C0 18.48 0 36.96 0 56 C2.31 56.33 4.62 56.66 7 57 C6.67 58.32 6.34 59.64 6 61 C4.68 60.67 3.36 60.34 2 60 C4.25740623 62.33524782 6.2805761 64.18705073 9 66 C8.6875 69.375 8.6875 69.375 8 73 C5 75 5 75 0 75 C0 78.63 0 82.26 0 86 C-10.89 86 -21.78 86 -33 86 C-33.495 79.565 -33.495 79.565 -34 73 C-34.66 72.01 -35.32 71.02 -36 70 C-36.37109375 67.9140625 -36.37109375 67.9140625 -36.4375 65.625 C-36.49744141 64.49964844 -36.49744141 64.49964844 -36.55859375 63.3515625 C-36 61 -36 61 -33.57421875 58.734375 C-30.19219054 55.14193229 -29.93786167 52.39083234 -29.375 47.625 C-29.14668832 46.01401574 -28.91618334 44.40334094 -28.68359375 42.79296875 C-28.57257324 41.98907715 -28.46155273 41.18518555 -28.34716797 40.35693359 C-27.83135702 36.85507786 -27.14252464 33.40650182 -26.4375 29.9375 C-26.19257812 28.72964844 -25.94765625 27.52179687 -25.6953125 26.27734375 C-25.10743519 23.50639395 -24.4720738 20.75441737 -23.8125 18 C-22.7211808 13.07981512 -22.09723782 8.84655901 -24.375 4.1875 C-25.95996212 1.94273063 -25.95996212 1.94273063 -28 0 C-21 -1 -21 -1 0 0 Z " fill="#EB9534" transform="translate(132,18)"/>
<path d="M0 0 C10.23 0 20.46 0 31 0 C28.71011233 2.28988767 26.72717821 3.97477492 24.125 5.8125 C16.92696123 11.21433093 13.98213159 16.37733644 12 25 C11.19718765 30.66741661 10.73639109 36.3666248 10.27148438 42.0703125 C10.16255859 43.19179688 10.05363281 44.31328125 9.94140625 45.46875 C9.85576416 46.48388672 9.77012207 47.49902344 9.68188477 48.54492188 C9 51 9 51 7.05053711 52.15039062 C6.03552124 52.57094727 6.03552124 52.57094727 5 53 C3.23272142 56.0334467 3.23272142 56.0334467 2 59 C3.98 59 5.96 59 8 59 C8.33 73.85 8.66 88.7 9 104 C6.03 104 3.06 104 0 104 C0 69.68 0 35.36 0 0 Z " fill="#EB9636" transform="translate(0,0)"/>
<path d="M0 0 C0.66 1.65 1.32 3.3 2 5 C2.66 3.35 3.32 1.7 4 0 C11.66816143 -0.76681614 11.66816143 -0.76681614 14.93359375 1.11328125 C16.5625 2.5 16.5625 2.5 19 5 C19.309375 4.34 19.61875 3.68 19.9375 3 C22.45557014 0.55823502 23.28107372 0.72857594 26.6875 0.75 C28.1259798 0.81423833 29.56416999 0.89163547 31 1 C30.67 2.32 30.34 3.64 30 5 C28.68 4.67 27.36 4.34 26 4 C28.25740623 6.33524782 30.2805761 8.18705073 33 10 C32.6875 13.375 32.6875 13.375 32 17 C29 19 29 19 24 19 C24 22.63 24 26.26 24 30 C13.11 30 2.22 30 -9 30 C-9.33 25.71 -9.66 21.42 -10 17 C-10.66 16.01 -11.32 15.02 -12 14 C-12.84163846 9.26910594 -12.64337215 5.95531016 -9.9375 1.9375 C-6.35587659 -0.42484735 -4.20965814 -0.41271158 0 0 Z " fill="#EB9533" transform="translate(108,74)"/>
<path d="M0 0 C5.61 0 11.22 0 17 0 C17.33 1.32 17.66 2.64 18 4 C18.66 3.01 19.32 2.02 20 1 C22.475 1.495 22.475 1.495 25 2 C25 10.25 25 18.5 25 27 C23.02 27 21.04 27 19 27 C18.67 21.39 18.34 15.78 18 10 C17.67 11.65 17.34 13.3 17 15 C13.37 15 9.74 15 6 15 C6 18.96 6 22.92 6 27 C4.02 27 2.04 27 0 27 C0 18.09 0 9.18 0 0 Z " fill="#A97666" transform="translate(49,66)"/>
<path d="M0 0 C1.32 0 2.64 0 4 0 C4 8.25 4 16.5 4 25 C0.04 25.33 -3.92 25.66 -8 26 C-11.59905504 22.40094496 -11.91447516 21.07761302 -12.3125 16.0625 C-12.25303303 13.12699411 -12.05780987 12.09634978 -10.5 9.5 C-6.85991277 7.31594766 -4.20345267 7.71976982 0 8 C0 5.36 0 2.72 0 0 Z " fill="#384C92" transform="translate(251,67)"/>
<path d="M0 0 C2.5625 1.4375 2.5625 1.4375 4 4 C4.64188764 8.06777634 4.51190405 11.63492254 3.0625 15.5 C-0.34078339 17.9751152 -3.84659938 18.53099518 -8 18 C-11.23352168 15.42638071 -12.58294467 13.94749944 -13.4375 9.95703125 C-13.63521837 6.66378467 -13.20336992 4.35368681 -11.5625 1.5 C-7.73923839 -0.7380068 -4.31870978 -0.75280262 0 0 Z " fill="#364B92" transform="translate(272,75)"/>
<path d="M0 0 C2.11884901 1.54579667 2.8686075 2.57985871 3.65234375 5.0859375 C4.42584642 11.29515075 4.42584642 11.29515075 2.1875 15 C-0.36149488 17.33050961 -1.39443958 17.91925861 -4.8125 18.375 C-8 18 -8 18 -10.875 16.0625 C-13.37697772 12.45670859 -13.69273195 10.39097926 -13.40625 6.09375 C-13 4 -13 4 -11.5625 1.4375 C-7.85451454 -0.6425894 -4.16013014 -0.85041334 0 0 Z " fill="#314890" transform="translate(198,75)"/>
<path d="M0 0 C1.41569064 -0.08167446 2.83276805 -0.13949698 4.25 -0.1875 C5.43335937 -0.23970703 5.43335937 -0.23970703 6.640625 -0.29296875 C9.75709817 0.09401053 10.91701897 0.61945025 13 3 C13.45718128 5.84566041 13.69521446 8.33616173 13.75 11.1875 C13.77964844 11.93708984 13.80929688 12.68667969 13.83984375 13.45898438 C13.9104079 15.30541307 13.95748476 17.15271261 14 19 C11.89695523 19.1080023 9.79233091 19.18558987 7.6875 19.25 C5.92986328 19.31960937 5.92986328 19.31960937 4.13671875 19.390625 C1 19 1 19 -0.89453125 17.14453125 C-2.25905192 14.49745758 -2.45228741 12.93986815 -2 10 C-0.9375 8.1875 -0.9375 8.1875 1 7 C4.6875 6.8125 4.6875 6.8125 8 7 C7.67 6.34 7.34 5.68 7 5 C4.69 5 2.38 5 0 5 C0 3.35 0 1.7 0 0 Z " fill="#244690" transform="translate(112,74)"/>
<path d="M0 0 C2.1796875 1.00390625 2.1796875 1.00390625 4 3 C4.45718128 5.84566041 4.69521446 8.33616173 4.75 11.1875 C4.77964844 11.93708984 4.80929688 12.68667969 4.83984375 13.45898438 C4.9104079 15.30541307 4.95748476 17.15271261 5 19 C2.87561661 19.08078641 0.7503677 19.13909141 -1.375 19.1875 C-2.55835938 19.22230469 -3.74171875 19.25710937 -4.9609375 19.29296875 C-6.46527344 19.14794922 -6.46527344 19.14794922 -8 19 C-10.44897847 15.32653229 -10.31537716 13.33643601 -10 9 C-8 7 -8 7 -4.375 6.875 C-2.704375 6.936875 -2.704375 6.936875 -1 7 C-1.33 6.34 -1.66 5.68 -2 5 C-4.31 5 -6.62 5 -9 5 C-9 3.68 -9 2.36 -9 1 C-5.94306678 -0.52846661 -3.37015453 -0.23242445 0 0 Z " fill="#2B4590" transform="translate(232,74)"/>
<path d="M0 0 C4.95 0 9.9 0 15 0 C15 1.32 15 2.64 15 4 C11.7 4 8.4 4 5 4 C5 5.65 5 7.3 5 9 C8.3 9 11.6 9 15 9 C15 10.65 15 12.3 15 14 C11.7 14 8.4 14 5 14 C5 17.63 5 21.26 5 25 C3.35 25 1.7 25 0 25 C0 16.75 0 8.5 0 0 Z " fill="#284790" transform="translate(50,67)"/>
<path d="M0 0 C6.27 0 12.54 0 19 0 C19 1.65 19 3.3 19 5 C16.69 5 14.38 5 12 5 C12 11.93 12 18.86 12 26 C10.35 26 8.7 26 7 26 C7 19.4 7 12.8 7 6 C4.69 6 2.38 6 0 6 C0 4.02 0 2.04 0 0 Z " fill="#344992" transform="translate(151,66)"/>
<path d="M0 0 C2.11472858 3.15972604 1.64816351 6.52176612 1.5234375 10.18359375 C1.50990234 10.93318359 1.49636719 11.68277344 1.48242188 12.45507812 C1.44712289 14.30239142 1.39331667 16.14933441 1.3359375 17.99609375 C-0.3140625 17.99609375 -1.9640625 17.99609375 -3.6640625 17.99609375 C-3.9940625 13.70609375 -4.3240625 9.41609375 -4.6640625 4.99609375 C-5.9840625 4.99609375 -7.3040625 4.99609375 -8.6640625 4.99609375 C-8.9940625 8.95609375 -9.3240625 12.91609375 -9.6640625 16.99609375 C-10.9840625 16.99609375 -12.3040625 16.99609375 -13.6640625 16.99609375 C-13.6640625 11.38609375 -13.6640625 5.77609375 -13.6640625 -0.00390625 C-2.96284299 -1.78744284 -2.96284299 -1.78744284 0 0 Z " fill="#1D438E" transform="translate(91.6640625,75.00390625)"/>
<path d="M0 0 C1.21816406 0.03480469 1.21816406 0.03480469 2.4609375 0.0703125 C3.68683594 0.09738281 3.68683594 0.09738281 4.9375 0.125 C5.87722656 0.15980469 5.87722656 0.15980469 6.8359375 0.1953125 C6.5059375 1.5153125 6.1759375 2.8353125 5.8359375 4.1953125 C4.5159375 3.8653125 3.1959375 3.5353125 1.8359375 3.1953125 C4.09334373 5.53056032 6.1165136 7.38236323 8.8359375 9.1953125 C8.5234375 12.5703125 8.5234375 12.5703125 7.8359375 16.1953125 C4.74705228 18.25456931 4.12657823 18.4343499 0.6484375 18.3203125 C-0.6096875 18.2790625 -1.8678125 18.2378125 -3.1640625 18.1953125 C-3.4940625 16.5453125 -3.8240625 14.8953125 -4.1640625 13.1953125 C-1.5240625 13.1953125 1.1159375 13.1953125 3.8359375 13.1953125 C3.8359375 12.2053125 3.8359375 11.2153125 3.8359375 10.1953125 C2.7015625 9.8859375 1.5671875 9.5765625 0.3984375 9.2578125 C-3.1640625 8.1953125 -3.1640625 8.1953125 -4.1640625 7.1953125 C-4.3515625 4.7578125 -4.3515625 4.7578125 -4.1640625 2.1953125 C-2.1640625 0.1953125 -2.1640625 0.1953125 0 0 Z " fill="#32498E" transform="translate(132.1640625,74.8046875)"/>
<path d="M0 0 C1.65 0 3.3 0 5 0 C6.60355101 3.50776784 7.22036864 6.14354879 7 10 C7.66 10 8.32 10 9 10 C9.144375 8.906875 9.28875 7.81375 9.4375 6.6875 C10 3 10 3 11 0 C12.65 0 14.3 0 16 0 C15.19140353 2.813677 14.37832997 5.62592069 13.5625 8.4375 C13.33240234 9.23994141 13.10230469 10.04238281 12.86523438 10.86914062 C11.11328125 16.88671875 11.11328125 16.88671875 10 18 C8.33382885 18.04063832 6.66611905 18.042721 5 18 C4.16320723 15.37605694 3.33043058 12.75095616 2.5 10.125 C2.26152344 9.37863281 2.02304688 8.63226563 1.77734375 7.86328125 C0 2.2265625 0 2.2265625 0 0 Z " fill="#27408E" transform="translate(204,75)"/>
<path d="M0 0 C0 1.65 0 3.3 0 5 C-1.98 5.66 -3.96 6.32 -6 7 C-6 8.65 -6 10.3 -6 12 C-4.02 12.66 -2.04 13.32 0 14 C0 15.65 0 17.3 0 19 C-7.22330097 19.60194175 -7.22330097 19.60194175 -10.5 17.0625 C-12.52692722 12.92419027 -12.93223392 9.52215224 -12 5 C-8.61014109 -0.03342687 -5.9007311 -0.57850305 0 0 Z " fill="#394B8D" transform="translate(108,74)"/>
<path d="M0 0 C1.65 0 3.3 0 5 0 C5.33 0.33 5.66 0.66 6 1 C7.66617115 1.04063832 9.33388095 1.042721 11 1 C11 2.65 11 4.3 11 6 C9.35 6.33 7.7 6.66 6 7 C5.67 10.96 5.34 14.92 5 19 C3.35 19 1.7 19 0 19 C0 12.73 0 6.46 0 0 Z " fill="#394F95" transform="translate(279,74)"/>
<path d="M0 0 C1.32 0 2.64 0 4 0 C4 1.98 4 3.96 4 6 C2.02 6 0.04 6 -2 6 C-2 10.29 -2 14.58 -2 19 C-3.65 19 -5.3 19 -7 19 C-7 13.06 -7 7.12 -7 1 C-5.02 1 -3.04 1 -1 1 C-0.67 0.67 -0.34 0.34 0 0 Z " fill="#445597" transform="translate(179,74)"/>
<path d="M0 0 C0.66 1.32 1.32 2.64 2 4 C2.66 2.68 3.32 1.36 4 0 C4 1.32 4 2.64 4 4 C7.465 3.505 7.465 3.505 11 3 C11.33 3.99 11.66 4.98 12 6 C10.88625 6.12375 9.7725 6.2475 8.625 6.375 C4.96896323 6.6465813 4.96896323 6.6465813 3 9 C2.32348793 11.19704511 2.32348793 11.19704511 1.875 13.625 C1.70742187 14.44226563 1.53984375 15.25953125 1.3671875 16.1015625 C1.24601562 16.72804688 1.12484375 17.35453125 1 18 C0.67 18 0.34 18 0 18 C0 16.35 0 14.7 0 13 C-0.78375 13.04125 -1.5675 13.0825 -2.375 13.125 C-5 13 -5 13 -7 11 C-7.25 8.5 -7.25 8.5 -7 6 C-5 4 -5 4 -2.375 3.875 C-1.59125 3.91625 -0.8075 3.9575 0 4 C0 2.68 0 1.36 0 0 Z " fill="#DF8F40" transform="translate(108,75)"/>
<path d="M0 0 C2.11884901 1.54579667 2.8686075 2.57985871 3.65234375 5.0859375 C4.42914961 11.32166674 4.42914961 11.32166674 2.0625 15.0625 C1.381875 15.701875 0.70125 16.34125 0 17 C-0.66 16.67 -1.32 16.34 -2 16 C-1.34 15.01 -0.68 14.02 0 13 C0.66 13 1.32 13 2 13 C0.21924544 9.35245328 0.21924544 9.35245328 -2 6 C-4.62102997 4.95489639 -4.62102997 4.95489639 -7 5 C-7.66 6.98 -8.32 8.96 -9 11 C-9.66 9.68 -10.32 8.36 -11 7 C-11.66 8.32 -12.32 9.64 -13 11 C-13.47633136 4.80769231 -13.47633136 4.80769231 -11.5625 1.5625 C-7.88159776 -0.68195258 -4.21225944 -0.86106961 0 0 Z " fill="#27408E" transform="translate(198,75)"/>
<path d="M0 0 C7.16883117 -0.47792208 7.16883117 -0.47792208 10.5 1.4375 C12.74047235 5.2649736 12.62013515 8.67495485 12 13 C11.0625 15.5 11.0625 15.5 9 17 C6.00580506 17.61582733 3.05114356 17.87206945 0 18 C-0.66 17.01 -1.32 16.02 -2 15 C0.64 14.01 3.28 13.02 6 12 C6.45613591 7.31974129 6.45613591 7.31974129 4.6875 3.1875 C3.14223264 2.10008964 1.57218154 1.04812103 0 0 Z " fill="#334991" transform="translate(264,75)"/>
<path d="M0 0 C1.32 0 2.64 0 4 0 C4 8.25 4 16.5 4 25 C3.01 24.67 2.02 24.34 1 24 C1.66 24 2.32 24 3 24 C2.67 20.37 2.34 16.74 2 13 C2 16.3 2 19.6 2 23 C-0.875 23.125 -0.875 23.125 -4 23 C-4.66 22.34 -5.32 21.68 -6 21 C-4.35 20.67 -2.7 20.34 -1 20 C-1 17.69 -1 15.38 -1 13 C-2.65 12.67 -4.3 12.34 -6 12 C-5.67 11.34 -5.34 10.68 -5 10 C-6.32 9.67 -7.64 9.34 -9 9 C-8 8 -8 8 -6.15234375 7.90234375 C-4.1015625 7.93489583 -2.05078125 7.96744792 0 8 C0 5.36 0 2.72 0 0 Z " fill="#1C378C" transform="translate(251,67)"/>
<path d="M0 0 C5.75 -0.125 5.75 -0.125 8 1 C8 2.32 8 3.64 8 5 C11.465 4.505 11.465 4.505 15 4 C15.33 4.99 15.66 5.98 16 7 C14.2984375 7.2165625 14.2984375 7.2165625 12.5625 7.4375 C9.19222799 7.61171478 9.19222799 7.61171478 8 9 C7.92851801 10.35243917 7.91600546 11.70834367 7.9375 13.0625 C7.958125 14.361875 7.97875 15.66125 8 17 C7.34 17 6.68 17 6 17 C6 14.69 6 12.38 6 10 C4.68 10 3.36 10 2 10 C2.66 7.36 3.32 4.72 4 2 C2.68 1.34 1.36 0.68 0 0 Z " fill="#C9CBD6" transform="translate(215,74)"/>
<path d="M0 0 C1.32 0 2.64 0 4 0 C3.6875 3.375 3.6875 3.375 3 7 C-0.08888522 9.05925681 -0.70935927 9.2390374 -4.1875 9.125 C-6.0746875 9.063125 -6.0746875 9.063125 -8 9 C-8.33 7.35 -8.66 5.7 -9 4 C-6.03 4 -3.06 4 0 4 C0 2.68 0 1.36 0 0 Z " fill="#2E498F" transform="translate(137,84)"/>
<path d="M0 0 C0.33 0 0.66 0 1 0 C1.33 5.28 1.66 10.56 2 16 C-5 15 -5 15 -8 13 C-8.6875 10.375 -8.6875 10.375 -9 8 C-6.23735711 7.40267181 -3.83967231 7 -1 7 C-0.67 4.69 -0.34 2.38 0 0 Z " fill="#4B5B98" transform="translate(235,77)"/>
<path d="M0 0 C0.33 0 0.66 0 1 0 C1.33 5.28 1.66 10.56 2 16 C-0.31 15.67 -2.62 15.34 -5 15 C-5 14.01 -5 13.02 -5 12 C-6.32 11.67 -7.64 11.34 -9 11 C-8.67 9.68 -8.34 8.36 -8 7 C-5.69 7 -3.38 7 -1 7 C-0.67 4.69 -0.34 2.38 0 0 Z " fill="#535487" transform="translate(124,77)"/>
<path d="M0 0 C1.32 0 2.64 0 4 0 C4 5.61 4 11.22 4 17 C2.68 17 1.36 17 0 17 C0 11.39 0 5.78 0 0 Z " fill="#1B4491" transform="translate(69,75)"/>
<path d="M0 0 C2.5 0.125 2.5 0.125 3.5 1.125 C3.625 4.625 3.625 4.625 3.5 8.125 C2.5 9.125 2.5 9.125 0 9.25 C-2.5 9.125 -2.5 9.125 -3.5 8.125 C-3.625 4.625 -3.625 4.625 -3.5 1.125 C-2.5 0.125 -2.5 0.125 0 0 Z " fill="#DBDCE0" transform="translate(267.5,78.875)"/>
<path d="M0 0 C4.70588235 0.70588235 4.70588235 0.70588235 6 2 C6.125 5 6.125 5 6 8 C5 9 5 9 2.5 9.125 C0 9 0 9 -1 8 C-1.125 4.5 -1.125 4.5 -1 1 C-0.67 0.67 -0.34 0.34 0 0 Z " fill="#DEDFE2" transform="translate(191,79)"/>
<path d="M0 0 C2.625 0.375 2.625 0.375 5 1 C5 3.31 5 5.62 5 8 C2.625 8.625 2.625 8.625 0 9 C-2 7 -2 7 -2.25 4.5 C-2 2 -2 2 0 0 Z " fill="#DBDBDF" transform="translate(246,79)"/>
<path d="M0 0 C0.99 0 1.98 0 3 0 C3 4.62 3 9.24 3 14 C2.01 14.495 2.01 14.495 1 15 C1.99 15 2.98 15 4 15 C4 10.05 4 5.1 4 0 C4.33 0 4.66 0 5 0 C5 5.28 5 10.56 5 16 C3.35 16 1.7 16 0 16 C-0.19441368 13.7089095 -0.38033135 11.41709663 -0.5625 9.125 C-0.71912109 7.21074219 -0.71912109 7.21074219 -0.87890625 5.2578125 C-1 2 -1 2 0 0 Z " fill="#505A94" transform="translate(88,77)"/>
<path d="M0 0 C7.50769231 -0.36923077 7.50769231 -0.36923077 10 1.5 C10.495 2.2425 10.495 2.2425 11 3 C10 5 10 5 9 6 C8.855625 7.134375 8.71125 8.26875 8.5625 9.4375 C8 13 8 13 6 15 C3.875 14.625 3.875 14.625 2 14 C3.32 13.34 4.64 12.68 6 12 C6.45613591 7.31974129 6.45613591 7.31974129 4.6875 3.1875 C3.14223264 2.10008964 1.57218154 1.04812103 0 0 Z " fill="#223F8E" transform="translate(264,75)"/>
<path d="M0 0 C-1.1446875 0.7734375 -1.1446875 0.7734375 -2.3125 1.5625 C-5.61575607 4.55847644 -6.48625726 6.85712514 -8 11 C-8.66 9.68 -9.32 8.36 -10 7 C-10.66 8.32 -11.32 9.64 -12 11 C-12.47863248 4.77777778 -12.47863248 4.77777778 -10.5 1.5625 C-6.86353539 -0.71029038 -4.24217465 -0.28281164 0 0 Z " fill="#1E3B8D" transform="translate(197,75)"/>
<path d="M0 0 C1.65 0 3.3 0 5 0 C4.01 3.3 3.02 6.6 2 10 C1.34 10 0.68 10 0 10 C-0.33 10.66 -0.66 11.32 -1 12 C-2.11658501 7.31034294 -1.80619523 4.46236469 0 0 Z " fill="#243E8D" transform="translate(215,75)"/>
<path d="M0 0 C4.455 0.99 4.455 0.99 9 2 C9 2.33 9 2.66 9 3 C6.69 3.33 4.38 3.66 2 4 C2 7.63 2 11.26 2 15 C1.34 15 0.68 15 0 15 C0 10.05 0 5.1 0 0 Z " fill="#37498F" transform="translate(79,76)"/>
<path d="M0 0 C0.66 0 1.32 0 2 0 C2 1.98 2 3.96 2 6 C1.34 5.67 0.68 5.34 0 5 C-2.32273159 4.84479443 -4.64959313 4.74980833 -6.9765625 4.68359375 C-7.66181 4.66281265 -8.3470575 4.64203156 -9.05307007 4.62062073 C-11.24361069 4.55519815 -13.43427189 4.49627446 -15.625 4.4375 C-17.1093875 4.39430782 -18.59376278 4.3506933 -20.078125 4.30664062 C-23.71862084 4.19952447 -27.35925251 4.09823638 -31 4 C-31 3.67 -31 3.34 -31 3 C-15.655 2.505 -15.655 2.505 0 2 C0 1.34 0 0.68 0 0 Z " fill="#EB9117" transform="translate(130,0)"/>
<path d="M0 0 C2.64 0.99 5.28 1.98 8 3 C8 3.99 8 4.98 8 6 C5.36 6 2.72 6 0 6 C-0.33 7.32 -0.66 8.64 -1 10 C-1.02689216 8.52093108 -1.04634621 7.04172517 -1.0625 5.5625 C-1.07410156 4.73878906 -1.08570312 3.91507812 -1.09765625 3.06640625 C-1 1 -1 1 0 0 Z " fill="#D5A06E" transform="translate(128,82)"/>
<path d="M0 0 C1.45742463 -0.08096803 2.91612807 -0.13917774 4.375 -0.1875 C5.18710938 -0.22230469 5.99921875 -0.25710937 6.8359375 -0.29296875 C7.55007812 -0.19628906 8.26421875 -0.09960938 9 0 C11 3 11 3 11 7 C10.01 7 9.02 7 8 7 C7.67 6.34 7.34 5.68 7 5 C4.69 5 2.38 5 0 5 C0 3.35 0 1.7 0 0 Z " fill="#444F8A" transform="translate(112,74)"/>
<path d="M0 0 C0.99 0.33 1.98 0.66 3 1 C3.0825 1.78375 3.165 2.5675 3.25 3.375 C3.72806339 6.14749104 3.72806339 6.14749104 6.0625 7.3125 C6.701875 7.539375 7.34125 7.76625 8 8 C4.535 9.485 4.535 9.485 1 11 C-0.625 9.4375 -0.625 9.4375 -2 7 C-1.1875 3.25 -1.1875 3.25 0 0 Z " fill="#415495" transform="translate(187,81)"/>
<path d="M0 0 C0.33 0.99 0.66 1.98 1 3 C1.66 3 2.32 3 3 3 C3 6.63 3 10.26 3 14 C2.01 14 1.02 14 0 14 C0 9.38 0 4.76 0 0 Z " fill="#29408D" transform="translate(173,78)"/>
<path d="M0 0 C0.99 0.66 1.98 1.32 3 2 C2.67 2.99 2.34 3.98 2 5 C1.67 4.34 1.34 3.68 1 3 C-4.1693489 3.40556131 -4.1693489 3.40556131 -9 5 C-9 3.68 -9 2.36 -9 1 C-5.98131566 -0.50934217 -3.32702771 -0.17510672 0 0 Z " fill="#3A5095" transform="translate(232,74)"/>
<path d="M0 0 C0.66 0 1.32 0 2 0 C2 1.98 2 3.96 2 6 C4.31 6 6.62 6 9 6 C9 6.99 9 7.98 9 9 C6.1875 9.25 6.1875 9.25 3 9 C0.532661 6.7793949 0.03847554 5.56430797 -0.1875 2.25 C-0.125625 1.5075 -0.06375 0.765 0 0 Z " fill="#425188" transform="translate(110,84)"/>
<path d="M0 0 C1.32 0 2.64 0 4 0 C3.74438677 2.3431213 3.40729228 4.67843403 3 7 C2.01 7.495 2.01 7.495 1 8 C0.67 5.36 0.34 2.72 0 0 Z M-6 4 C-4.02 4 -2.04 4 0 4 C-0.66 4.66 -1.32 5.32 -2 6 C-3.32 5.34 -4.64 4.68 -6 4 Z " fill="#465595" transform="translate(137,84)"/>
<path d="M0 0 C0.33 0.99 0.66 1.98 1 3 C1.66 3 2.32 3 3 3 C2.67 4.65 2.34 6.3 2 8 C0.68 8.33 -0.64 8.66 -2 9 C-2.125 5.625 -2.125 5.625 -2 2 C-1.34 1.34 -0.68 0.68 0 0 Z " fill="#25418F" transform="translate(98,77)"/>
<path d="M0 0 C3.3 0 6.6 0 10 0 C10 0.99 10 1.98 10 3 C6.7 3 3.4 3 0 3 C0 2.01 0 1.02 0 0 Z " fill="#ED9632" transform="translate(55,72)"/>
<path d="M0 0 C0.33 0.66 0.66 1.32 1 2 C2.66500443 2.34153937 4.33178677 2.67449498 6 3 C6.66 3.66 7.32 4.32 8 5 C7.01 5 6.02 5 5 5 C4.67 6.32 4.34 7.64 4 9 C4 8.01 4 7.02 4 6 C2.35 5.67 0.7 5.34 -1 5 C-1.33 4.01 -1.66 3.02 -2 2 C-1.34 2 -0.68 2 0 2 C0 1.34 0 0.68 0 0 Z " fill="#28408D" transform="translate(132,79)"/>
<path d="M0 0 C1.65 0.33 3.3 0.66 5 1 C4.67 2.32 4.34 3.64 4 5 C2.35 4.67 0.7 4.34 -1 4 C-0.67 2.68 -0.34 1.36 0 0 Z " fill="#324B8D" transform="translate(69,67)"/>
<path d="M0 0 C3 2 3 2 3.51171875 3.9453125 C3.67447917 5.96354167 3.83723958 7.98177083 4 10 C3.01 10 2.02 10 1 10 C0.67 10.66 0.34 11.32 0 12 C0 8.04 0 4.08 0 0 Z " fill="#CFD0D9" transform="translate(236,79)"/>
<path d="M0 0 C0.66 1.32 1.32 2.64 2 4 C1.34 4 0.68 4 0 4 C-0.33 4.66 -0.66 5.32 -1 6 C-3.01920337 4.69593116 -5.01924973 3.36176581 -7 2 C-7 1.67 -7 1.34 -7 1 C-3.535 0.505 -3.535 0.505 0 0 Z " fill="#3F5294" transform="translate(197,75)"/>
<path d="M0 0 C1.98 0.66 3.96 1.32 6 2 C4.35 3.32 2.7 4.64 1 6 C0.34 5.67 -0.32 5.34 -1 5 C-0.67 3.35 -0.34 1.7 0 0 Z " fill="#32488E" transform="translate(100,75)"/>
<path d="M0 0 C0.33 0 0.66 0 1 0 C1.33 3.3 1.66 6.6 2 10 C-0.875 10.125 -0.875 10.125 -4 10 C-4.66 9.34 -5.32 8.68 -6 8 C-4.35 7.67 -2.7 7.34 -1 7 C-0.67 4.69 -0.34 2.38 0 0 Z " fill="#1D3A8C" transform="translate(251,80)"/>
<path d="M0 0 C1.32 0 2.64 0 4 0 C3.67 1.65 3.34 3.3 3 5 C1.68 4.67 0.36 4.34 -1 4 C-0.67 2.68 -0.34 1.36 0 0 Z " fill="#CBCED7" transform="translate(227,84)"/>
<path d="M0 0 C-0.375 1.9375 -0.375 1.9375 -1 4 C-1.99 4.495 -1.99 4.495 -3 5 C-3.33 4.01 -3.66 3.02 -4 2 C-6.97 1.505 -6.97 1.505 -10 1 C-10 0.67 -10 0.34 -10 0 C-3.375 -1.125 -3.375 -1.125 0 0 Z " fill="#2C4590" transform="translate(234,77)"/>
<path d="M0 0 C0.66 1.32 1.32 2.64 2 4 C1 5 1 5 -1.5625 5.0625 C-2.7690625 5.0315625 -2.7690625 5.0315625 -4 5 C-4 3.68 -4 2.36 -4 1 C-2.68 1.33 -1.36 1.66 0 2 C0 1.34 0 0.68 0 0 Z " fill="#3B5095" transform="translate(213,88)"/>
<path d="M0 0 C1.32 0 2.64 0 4 0 C3.67 2.64 3.34 5.28 3 8 C1 5 1 5 1 3 C0.34 2.67 -0.32 2.34 -1 2 C-0.67 1.34 -0.34 0.68 0 0 Z " fill="#3A4E93" transform="translate(207,80)"/>
<path d="M0 0 C1.32 0 2.64 0 4 0 C4 1.32 4 2.64 4 4 C2.35 4 0.7 4 -1 4 C-0.67 2.68 -0.34 1.36 0 0 Z " fill="#D88C42" transform="translate(116,84)"/>
<path d="M0 0 C1.65 0 3.3 0 5 0 C5.33 0.99 5.66 1.98 6 3 C4.02 3 2.04 3 0 3 C0 2.01 0 1.02 0 0 Z " fill="#CF8848" transform="translate(114,78)"/>
</svg>
