<?xml version='1.0' encoding='utf-8'?>
<svg xmlns="http://www.w3.org/2000/svg" clip-rule="evenodd" fill-rule="evenodd" stroke-linejoin="round" stroke-miterlimit="2" version="1.1" viewBox="0 0 360 217"> <g transform="translate(-1583.8 -173.22)"> <g transform="scale(4.1667)"> <g transform="matrix(-.54414 0 0 .46777 657.21 -293.22)"> <rect x="350.75" y="715.73" width="158.52" height="111.27" fill="#243770"/> </g> <g transform="translate(418.21 74.581)"> <path d="m0-2.113-5.216-3.488 2.364 9.089c1.341-1.627 2.311-3.541 2.852-5.601" fill="#7f3e98" fill-rule="nonzero"/> </g> <g transform="translate(412.08 63.451)"> <path d="M0,2.676L-0.447,0L-2.834,0.399L0,2.676Z" fill="#ec008c" fill-rule="nonzero"/> </g> <g transform="translate(401.34 74.748)"> <path d="m0-20.27c-7.891 1.533-13.064 9.202-11.531 17.093 0.333 1.716 0.971 3.293 1.823 4.711l4.203-6.658-2e-3 -0.012 0.01-2e-3 6.924-10.969 5.423 4.358 4.162-0.692 0.778 4.661 5.263 4.229 0.081 0.065c0.294-1.695 0.307-3.466-0.04-5.253-1.534-7.892-9.202-13.065-17.094-11.531" fill="#e27fb4" fill-rule="nonzero"/> </g> <g transform="translate(423.66 61.449)"> <path d="m0 6.567-0.25-0.968 32.376-8.319 0.25 0.968-32.376 8.319zm31.904-12.472c-2.358-1.589-4.702-1.735-5.612-1.744-0.921 0.881-1.842 1.761-2.762 2.642-1.618-0.661-3.237-1.322-4.855-1.982-0.855 1.298-1.71 2.595-2.566 3.893-1.406-0.708-2.813-1.417-4.219-2.125-0.818 1.281-1.636 2.562-2.453 3.843-1.27-0.722-2.541-1.444-3.811-2.166-0.654 1.21-1.307 2.421-1.961 3.632-1.226-0.713-2.452-1.426-3.678-2.138l-2.197 3.693c-0.826-0.432-1.653-0.863-2.479-1.295-0.019-0.044-0.034-0.09-0.053-0.134-2e-3 -4e-3 -3e-3 -8e-3 -5e-3 -0.012-0.165-0.372-0.346-0.733-0.537-1.089-0.032-0.06-0.063-0.12-0.096-0.18-0.19-0.345-0.392-0.681-0.605-1.009-0.031-0.046-0.062-0.092-0.093-0.139-0.453-0.68-0.955-1.323-1.5-1.924-0.032-0.035-0.064-0.071-0.096-0.107-0.275-0.297-0.56-0.585-0.855-0.861-0.021-0.019-0.041-0.038-0.062-0.056-0.617-0.571-1.276-1.093-1.972-1.563-0.018-0.013-0.036-0.025-0.054-0.038-1.075-0.719-2.234-1.313-3.455-1.763-2e-3 -1e-3 -4e-3 -2e-3 -6e-3 -2e-3 -2.579-0.952-5.43-1.27-8.331-0.786-8.901 1.486-14.934 9.937-13.447 18.838 0.426 2.557 1.436 4.87 2.858 6.843l0.52-0.825c-0.998-1.571-1.736-3.341-2.112-5.276-1.613-8.298 3.826-16.36 12.124-17.972 8.298-1.613 16.361 3.826 17.973 12.124 0.393 2.023 0.361 4.03-0.024 5.936l0.652 0.523c0.2-0.779 0.344-1.578 0.428-2.39 12.993-3.346 25.987-6.692 38.98-10.039-0.371-0.839-1.386-2.833-3.639-4.352" fill="#ec008c" fill-rule="nonzero"/> </g> <g transform="matrix(.25172 .9678 .9678 -.25172 415.09 75.353)"> <path d="m3.591-0.424h1.867c-1.547 2.266-3.648 4.123-6.106 5.379l-0.767-0.682c2.009-1.173 3.717-2.783 5.006-4.697" fill="#fff" fill-rule="nonzero"/> </g> <g transform="translate(398.43 73.193)"> <path d="M0,9.013L-2.344,0L-5.093,5.373C-3.672,6.936 -1.939,8.186 0,9.013" fill="#d5519d" fill-rule="nonzero"/> </g> <g transform="matrix(-.45568 .89014 .89014 .45568 399.72 81.592)"> <path d="m1.019-7.067h2.263c0.951 2.765 1.147 5.745 0.57 8.608l-2.031-1.809c0.245-2.298-0.028-4.623-0.802-6.799" fill="#fff" fill-rule="nonzero"/> </g> <g transform="translate(408.6 79.562)"> <path d="m0-4.005-0.894-3.393 3.393-0.894 0.895 3.393-3.394 0.894zm-8.256 2.218-0.894-3.394 3.394-0.894 0.894 3.394-3.394 0.894zm11.685-9.122-15.216 3.932 3.478 13.374c2.242 0.489 4.615 0.507 6.985-0.017l-1.031-3.916 2.915-0.768 0.992 3.766c1.991-0.846 3.751-2.057 5.214-3.538l-3.337-12.833z" fill="#fff" fill-rule="nonzero"/> </g> <g transform="translate(401.57 71.993)"> <path d="M0,-10.088L-5.195,0L9.432,-3.781L0,-10.088Z" fill="#de62a5" fill-rule="nonzero"/> </g> </g> </g> </svg>