<svg xmlns="http://www.w3.org/2000/svg" width="450" height="210.05" viewBox="0 0 450 210.05" xmlns:xlink="http://www.w3.org/1999/xlink" role="img" artist="Katerina Limpitsouni" source="https://undraw.co/"><path d="M409.998 209.646h-181.232c-4.929 0 -8.94 -4.436 -8.94 -9.89v-134.773a5.551 5.551 0 0 1 2.953 -5.02l68.485 -41.459a27.23 27.23 0 0 1 24.163 -0.025l100.541 41.479a5.551 5.551 0 0 1 2.971 5.028v134.769c0 5.454 -4.01 9.89 -8.94 9.89" fill="#f2f2f2"/><path d="M383.238 209.5H227.609c-4.251 0 -7.709 -3.132 -7.709 -6.981V108.311a3.917 3.917 0 0 1 2.569 -3.577l72.464 -28.986a28.214 28.214 0 0 1 20.731 -0.01l72.709 28.998a3.915 3.915 0 0 1 2.573 3.579V202.519c0 3.849 -3.458 6.981 -7.709 6.981" fill="#f59e0b"/><path cx="298.68503" cy="194.47994" r="50.53168" fill="#ff6584" d="M157.593 87.764A22.804 22.804 0 0 1 134.789 110.568A22.804 22.804 0 0 1 111.985 87.764A22.804 22.804 0 0 1 157.593 87.764z"/><path cx="319.81038" cy="298.3466" rx="64.00072" ry="80.10973" fill="#f2f2f2" d="M173.204 134.636A28.882 36.151 0 0 1 144.322 170.788A28.882 36.151 0 0 1 115.44 134.636A28.882 36.151 0 0 1 173.204 134.636z"/><path points="319.986 282.238 320.162 282.238 323.327 463.69 316.646 463.69 319.986 282.238" fill="#ccc" d="M144.402 127.367L144.481 127.367L145.909 209.252L142.894 209.252L144.402 127.367Z"/><path d="M149.328 181.577a0.713 0.713 0 0 1 -0.299 0.964l-4.142 2.181 -0.665 -1.264 4.142 -2.181a0.713 0.713 0 0 1 0.964 0.299" fill="#ccc"/><path cx="135.81038" cy="298.3466" rx="64.00072" ry="80.10973" fill="#f2f2f2" d="M90.17 134.636A28.882 36.151 0 0 1 61.288 170.788A28.882 36.151 0 0 1 32.406 134.636A28.882 36.151 0 0 1 90.17 134.636z"/><path d="M66.294 182.931a0.714 0.714 0 0 0 -0.965 -0.299l-2.892 1.523 -0.991 -56.788h-0.079l-1.507 81.885h3.015l-0.409 -23.498 3.529 -1.858a0.714 0.714 0 0 0 0.3 -0.964" fill="#ccc"/><path d="M102.705 51.323c20.212 0 36.639 38.084 36.639 63.382S122.959 160.514 102.748 160.514s-36.596 -20.509 -36.596 -45.808 16.342 -63.382 36.553 -63.382" fill="#f59e0b"/><path d="M109.09 175.901a0.905 0.905 0 0 0 -1.222 -0.379l-3.664 1.929 -1.255 -71.956h-0.101l-1.91 103.757h3.82l-0.519 -29.775 4.472 -2.354a0.905 0.905 0 0 0 0.379 -1.222" fill="#3f3d56"/><path d="M269.086 144.759v-9.743a4.793 4.793 0 0 0 -4.791 -4.792h-24.587a4.793 4.793 0 0 0 -4.792 4.791v9.743Z" fill="#fff"/><path d="M234.916 146.289v15.098a4.793 4.793 0 0 0 4.792 4.792h24.587a4.793 4.793 0 0 0 4.791 -4.792V146.29Z" fill="#fff"/><path d="m385.028 118.015 -73.817 -27.06a20.19 20.19 0 0 0 -13.897 0l-73.818 27.06a10.295 10.295 0 0 1 -13.838 -9.666 10.294 10.294 0 0 1 6.752 -9.666l80.905 -29.658a20.19 20.19 0 0 1 13.897 0l80.905 29.658a10.294 10.294 0 0 1 6.752 9.666 10.295 10.295 0 0 1 -13.838 9.666" fill="#3f3d56"/><path d="M316.181 209.951h-19.73a7.906 7.906 0 0 1 -7.897 -7.897V154.275a7.906 7.906 0 0 1 7.897 -7.897h19.73a7.906 7.906 0 0 1 7.897 7.897V202.054a7.906 7.906 0 0 1 -7.897 7.897m-19.73 -62.22a6.551 6.551 0 0 0 -6.543 6.543V202.054a6.551 6.551 0 0 0 6.543 6.543h19.73a6.551 6.551 0 0 0 6.543 -6.543V154.275a6.551 6.551 0 0 0 -6.543 -6.543Z" fill="#3f3d56"/><path d="M318.095 44.758a14.277 14.277 0 0 0 -28.441 0Z" fill="#fff"/><path d="M289.601 46.288a14.276 14.276 0 0 0 28.547 0Z" fill="#fff"/><path d="M315.859 62.069H291.889a4.306 4.306 0 0 1 0 -8.611h23.97a4.306 4.306 0 0 1 0 8.611" fill="#ccc"/><path d="M235.171 161.305a3.854 3.854 0 0 0 0 7.709h33.66a3.854 3.854 0 0 0 0 -7.709Z" fill="#ccc"/><path d="M339.721 146.289v15.098a4.793 4.793 0 0 0 4.792 4.792h24.587a4.793 4.793 0 0 0 4.792 -4.792V146.29Z" fill="#fff"/><path d="M373.891 144.759v-9.743a4.793 4.793 0 0 0 -4.792 -4.792h-24.587a4.793 4.793 0 0 0 -4.792 4.791v9.743Z" fill="#fff"/><path cx="704.77278" cy="391.97653" r="6.21572" fill="#3f3d56" d="M320.851 176.889A2.805 2.805 0 0 1 318.046 179.694A2.805 2.805 0 0 1 315.241 176.889A2.805 2.805 0 0 1 320.851 176.889z"/><path points="495.986 395.977 471.503 357.893 472.636 357.164 495.868 393.303 514.799 357.216 515.991 357.841 495.986 395.977" fill="#3f3d56" d="M223.826 178.694L212.777 161.508L213.289 161.179L223.773 177.488L232.316 161.203L232.854 161.485L223.826 178.694Z"/><path d="M232.823 155.874H206.539v-0.456a5.621 5.621 0 0 0 -5.621 -5.622 5.621 5.621 0 0 0 -5.622 5.622v0.456h-2.583a5.621 5.621 0 1 0 0 11.243h2.583v42.481c11.201 -0.225 -0.081 0.227 11.243 0v-42.481h26.284a5.621 5.621 0 0 0 0 -11.243" fill="#3f3d56"/><path cx="444.88714" cy="357.52843" r="4.71326" fill="#fff" d="M202.893 161.344A2.127 2.127 0 0 1 200.766 163.471A2.127 2.127 0 0 1 198.639 161.344A2.127 2.127 0 0 1 202.893 161.344z"/><path d="M236.163 189.524h-24.304a4.334 4.334 0 0 1 -4.33 -4.33v-7.896a4.334 4.334 0 0 1 4.33 -4.33h24.304a4.334 4.334 0 0 1 4.33 4.33v7.896a4.334 4.334 0 0 1 -4.33 4.33" fill="#ccc"/><path x="475.18665" y="397.25445" width="41.74598" height="7.40655" rx="3.70327" fill="#f59e0b" d="M216.111 179.271H231.607A1.671 1.671 0 0 1 233.279 180.942V180.942A1.671 1.671 0 0 1 231.607 182.613H216.111A1.671 1.671 0 0 1 214.44 180.942V180.942A1.671 1.671 0 0 1 216.111 179.271z"/><path d="M449.651 210.05H0.349a0.349 0.349 0 0 1 0 -0.698h449.303a0.349 0.349 0 0 1 0 0.698" fill="#ccc"/><path d="M373.381 169.464h-33.66a4.306 4.306 0 1 1 0 -8.611h33.66a4.306 4.306 0 0 1 0 8.611" fill="#ccc"/><path d="M418.597 69.478s-8.163 -0.579 -24.82 -1.354c-19.856 -34.748 -84.39 -43.124 -84.39 -68.124H388.705a29.924 29.924 0 0 1 29.923 29.923Z" fill="#ccc"/><path d="M349.802 9.136a0.677 0.677 0 0 0 -0.677 0.677v22.6a0.677 0.677 0 0 0 0.677 0.677h14.078a0.677 0.677 0 0 0 0.677 -0.677v-22.6a0.677 0.677 0 0 0 -0.677 -0.677Z" fill="#f2f2f2"/><path d="M388.902 67.655 315.084 23.164a20.19 20.19 0 0 0 -13.897 0l-73.818 44.492a10.295 10.295 0 0 1 -13.838 -9.666 10.294 10.294 0 0 1 6.752 -9.666L301.187 1.234a20.19 20.19 0 0 1 13.897 0l80.905 47.09a10.294 10.294 0 0 1 6.752 9.666 10.295 10.295 0 0 1 -13.838 9.666" fill="#ccc"/></svg>