<svg xmlns="http://www.w3.org/2000/svg" width="450" height="283.84" viewBox="0 0 450 283.84" xmlns:xlink="http://www.w3.org/1999/xlink" role="img" artist="Katerina Limpitsouni" source="https://undraw.co/"><path d="M328.35 69.124c0 27.232 -42.566 107.541 -66.972 151.349a19.097 19.097 0 0 1 -33.368 0c-24.406 -43.808 -66.972 -124.118 -66.972 -151.349 0 -38.176 37.454 -69.124 83.656 -69.124s83.656 30.948 83.656 69.124" fill="#f59e0b"/><path cx="312.01198" cy="87" r="58" fill="#fff" d="M290.646 68.339A45.559 45.559 0 0 1 245.087 113.898A45.559 45.559 0 0 1 199.528 68.339A45.559 45.559 0 0 1 290.646 68.339z"/><path cx="69.98172" cy="104.73964" r="34.73965" fill="#ff6584" d="M82.259 82.273A27.288 27.288 0 0 1 54.971 109.562A27.288 27.288 0 0 1 27.683 82.273A27.288 27.288 0 0 1 82.259 82.273z"/><path cx="311.51198" cy="354.85574" rx="84.09209" ry="6.49158" fill="#f59e0b" d="M310.749 278.741A66.055 5.099 0 0 1 244.694 283.84A66.055 5.099 0 0 1 178.639 278.741A66.055 5.099 0 0 1 310.749 278.741z"/><path cx="356.74039" cy="401.75807" r="19.98596" transform="rotate(-80.783 41.683 451.368)" fill="#f59e0b" opacity="0.4" style="isolation:isolate" d="M295.92 315.583A15.699 15.699 0 0 1 280.221 331.282A15.699 15.699 0 0 1 264.522 315.583A15.699 15.699 0 0 1 295.92 315.583z"/><path d="M401.212 185.01c-123.631 -46.345 -274.416 -1.163 -361.473 91.26 -0.495 0.518 -0.99 1.045 -1.469 1.571h-1.328c0.456 -0.526 0.927 -1.053 1.39 -1.571C127.197 176.817 275.979 137.181 401.212 185.01" fill="#3f3d56"/><path d="M434.997 200.382a295.35 295.35 0 0 0 -33.785 -15.372 267.857 267.857 0 0 1 33.785 15.372" fill="#3f3d56"/><path cx="467.6406" cy="174.31504" r="21.92017" fill="#f59e0b" opacity="0.4" style="isolation:isolate" d="M384.552 136.925A17.218 17.218 0 0 1 367.334 154.144A17.218 17.218 0 0 1 350.115 136.925A17.218 17.218 0 0 1 384.552 136.925z"/><path d="M369.251 269.366c1.331 4.919 5.889 7.965 5.889 7.965s2.4 -4.928 1.069 -9.847 -5.888 -7.965 -5.888 -7.965 -2.4 4.928 -1.07 9.847" fill="#3f3d56"/><path d="M371.206 268.309c3.652 3.554 4.098 9.018 4.098 9.018s-5.474 -0.298 -9.125 -3.852 -4.097 -9.018 -4.097 -9.018 5.473 0.298 9.125 3.853" fill="#f59e0b"/><path d="M2.639 200.975v7.588l-0.377 0.408v-8.075c0.126 0.024 0.251 0.055 0.377 0.079" fill="#3f3d56"/><path d="M26.817 276.266c-0.11 0.181 -0.228 0.361 -0.346 0.542H2.262v-75.456l0.377 -0.377 3.213 3.653v-5.341h10.212v16.951l10.314 11.712 0.094 0.11c0.126 0.393 0.244 0.786 0.361 1.178a0.031 0.031 0 0 0 0.008 0.016 139.034 139.034 0 0 1 3.802 15.074c2.247 12.01 1.909 23.023 -3.825 31.939" fill="#ccc"/><path x="5.4271" y="308.95298" width="8.27446" height="6.89539" fill="#3f3d56" d="M4.263 242.684H10.763V248.1H4.263V242.684z"/><path x="5.4271" y="321.36466" width="8.27446" height="6.89539" fill="#3f3d56" d="M4.263 252.433H10.763V257.85H4.263V252.433z"/><path d="m210.977 232.393 -3.25 -5.416 30.331 -25.999c22.424 -10.794 49.454 -7.679 77.996 0v7.582l-28.165 30.332 -32.499 6.499Z" fill="#3f3d56"/><path d="M329.48 216.235c5.387 -5.992 6.135 -11.688 0 -16.949h-10.212v5.345l-3.213 -3.653 -25.999 25.999 -4.334 4.333 -5.416 21.666 9.75 23.831h49.83v-48.747Z" fill="#ccc"/><path d="M207.727 226.976h82.329v49.831H207.727c-9.96 -10.776 -4.785 -30.417 0 -49.831" fill="#f2f2f2"/><path x="332.71515" y="308.95298" width="22.06525" height="19.30707" fill="#3f3d56" d="M261.349 242.684H278.682V257.85H261.349V242.684z"/><path x="304.4441" y="308.26344" width="19.30707" height="44.1304" fill="#ccc" d="M239.142 242.142H254.308V276.807H239.142V242.142z"/><path points="282.379 315.159 282.379 308.264 274.105 308.264 274.105 315.159 281.689 315.159 282.379 315.159" fill="#3f3d56" d="M221.81 247.559L221.81 242.143L215.311 242.143L215.311 247.559L221.268 247.559L221.81 247.559Z"/><path points="281.689 320.675 274.105 320.675 274.105 327.571 282.379 327.571 282.379 320.675 281.689 320.675" fill="#3f3d56" d="M221.268 251.892L215.311 251.892L215.311 257.309L221.81 257.309L221.81 251.892L221.268 251.892Z"/><path x="287.89515" y="308.26344" width="8.27448" height="6.89539" fill="#3f3d56" d="M226.143 242.142H232.643V247.559H226.143V242.142z"/><path x="287.89515" y="320.67512" width="8.27448" height="6.89539" fill="#3f3d56" d="M226.143 251.892H232.643V257.308H226.143V251.892z"/><path points="398.911 315.849 398.911 308.953 390.636 308.953 390.636 315.849 398.221 315.849 398.911 315.849" fill="#3f3d56" d="M313.346 248.101L313.346 242.684L306.846 242.684L306.846 248.101L312.804 248.101L313.346 248.101Z"/><path points="398.221 321.365 390.636 321.365 390.636 328.26 398.911 328.26 398.911 321.365 398.221 321.365" fill="#3f3d56" d="M312.804 252.434L306.846 252.434L306.846 257.85L313.346 257.85L313.346 252.434L312.804 252.434Z"/><path x="404.42707" y="308.95298" width="8.27448" height="6.89539" fill="#3f3d56" d="M317.679 242.684H324.179V248.1H317.679V242.684z"/><path x="404.42707" y="321.36466" width="8.27448" height="6.89539" fill="#3f3d56" d="M317.679 252.433H324.179V257.85H317.679V252.433z"/><path points="81.966 180.01 75.071 174.493 113.685 140.016 211.599 140.016 211.599 170.356 148.162 213.108 81.966 180.01" fill="#3f3d56" d="M64.385 141.399L58.969 137.065L89.3 109.983L166.212 109.983L166.212 133.815L116.382 167.397L64.385 141.399Z"/><path d="M180.234 125.175v-14.65h-10.212v3.588l-3.81 -4.129 -24.916 27.082 -9.748 6.5 -15.117 110.444 22.798 22.798h52.982c8.118 -40.837 14.555 -82.788 0 -138.659Z" fill="#ccc"/><path d="M58.968 137.065h82.329v139.741H58.968c-9.009 -54.288 -13.409 -104.633 0 -139.741" fill="#f2f2f2"/><path x="115.75318" y="308.95298" width="19.30707" height="43.44092" fill="#ccc" d="M90.925 242.684H106.09V276.807H90.925V242.684z"/><path points="95.067 321.365 95.067 314.47 86.793 314.47 86.793 321.365 94.378 321.365 95.067 321.365" fill="#3f3d56" d="M74.676 252.434L74.676 247.018L68.176 247.018L68.176 252.434L74.134 252.434L74.676 252.434Z"/><path points="94.378 326.881 86.793 326.881 86.793 333.777 95.067 333.777 95.067 326.881 94.378 326.881" fill="#3f3d56" d="M74.134 256.767L68.176 256.767L68.176 262.183L74.676 262.183L74.676 256.767L74.134 256.767Z"/><path x="100.58335" y="314.46928" width="8.27444" height="6.89539" fill="#3f3d56" d="M79.009 247.017H85.508V252.433H79.009V247.017z"/><path points="150.92 326.881 143.335 326.881 143.335 333.777 151.609 333.777 151.609 326.881 150.92 326.881" fill="#3f3d56" d="M118.548 256.767L112.59 256.767L112.59 262.183L119.09 262.183L119.09 256.767L118.548 256.767Z"/><path x="157.12546" y="314.46928" width="8.27444" height="6.89539" fill="#3f3d56" d="M123.423 247.017H129.922V252.433H123.423V247.017z"/><path x="157.12546" y="326.88096" width="8.27444" height="6.89539" fill="#3f3d56" d="M123.423 256.766H129.922V262.183H123.423V256.766z"/><path points="209.53 183.457 209.53 176.562 201.256 176.562 201.256 183.457 208.841 183.457 209.53 183.457" fill="#3f3d56" d="M164.587 144.106L164.587 138.69L158.088 138.69L158.088 144.106L164.046 144.106L164.587 144.106Z"/><path points="208.841 188.974 201.256 188.974 201.256 195.869 209.53 195.869 209.53 188.974 208.841 188.974" fill="#3f3d56" d="M164.046 148.44L158.088 148.44L158.088 153.856L164.587 153.856L164.587 148.44L164.046 148.44Z"/><path x="215.04667" y="176.56168" width="8.27444" height="6.89539" fill="#3f3d56" d="M168.92 138.69H175.42V144.106H168.92V138.69z"/><path x="215.04667" y="188.97334" width="8.27444" height="6.89539" fill="#3f3d56" d="M168.92 148.439H175.42V153.856H168.92V148.439z"/><path points="209.53 222.072 209.53 215.176 201.256 215.176 201.256 222.072 208.841 222.072 209.53 222.072" fill="#3f3d56" d="M164.587 174.439L164.587 169.022L158.088 169.022L158.088 174.439L164.046 174.439L164.587 174.439Z"/><path points="208.841 227.588 201.256 227.588 201.256 234.483 209.53 234.483 209.53 227.588 208.841 227.588" fill="#3f3d56" d="M164.046 178.771L158.088 178.771L158.088 184.187L164.587 184.187L164.587 178.771L164.046 178.771Z"/><path x="215.04667" y="215.17579" width="8.27444" height="6.89539" fill="#3f3d56" d="M168.92 169.022H175.42V174.438H168.92V169.022z"/><path x="215.04667" y="227.58747" width="8.27444" height="6.89539" fill="#3f3d56" d="M168.92 178.771H175.42V184.187H168.92V178.771z"/><path points="209.53 260.686 209.53 253.79 201.256 253.79 201.256 260.686 208.841 260.686 209.53 260.686" fill="#3f3d56" d="M164.587 204.77L164.587 199.353L158.088 199.353L158.088 204.77L164.046 204.77L164.587 204.77Z"/><path points="208.841 266.202 201.256 266.202 201.256 273.097 209.53 273.097 209.53 266.202 208.841 266.202" fill="#3f3d56" d="M164.046 209.103L158.088 209.103L158.088 214.519L164.587 214.519L164.587 209.103L164.046 209.103Z"/><path x="215.04667" y="253.78992" width="8.27444" height="6.89539" fill="#3f3d56" d="M168.92 199.353H175.42V204.77H168.92V199.353z"/><path x="215.04667" y="266.20161" width="8.27444" height="6.89539" fill="#3f3d56" d="M168.92 209.103H175.42V214.519H168.92V209.103z"/><path points="209.53 299.3 209.53 292.404 201.256 292.404 201.256 299.3 208.841 299.3 209.53 299.3" fill="#3f3d56" d="M164.587 235.102L164.587 229.685L158.088 229.685L158.088 235.102L164.046 235.102L164.587 235.102Z"/><path points="208.841 304.816 201.256 304.816 201.256 311.711 209.53 311.711 209.53 304.816 208.841 304.816" fill="#3f3d56" d="M164.046 239.434L158.088 239.434L158.088 244.85L164.587 244.85L164.587 239.434L164.046 239.434Z"/><path x="215.04667" y="292.40406" width="8.27444" height="6.89539" fill="#3f3d56" d="M168.92 229.685H175.42V235.101H168.92V229.685z"/><path x="215.04667" y="304.81574" width="8.27444" height="6.89539" fill="#3f3d56" d="M168.92 239.434H175.42V244.851H168.92V239.434z"/><path d="M68.176 144.106h62.829v12.999c-20.139 -5.558 -41.14 -5.159 -62.829 0Z" fill="#3f3d56"/><path d="M68.176 170.105q29.415 8.666 62.829 0v12.999H68.176Z" fill="#3f3d56"/><path d="M68.176 196.104h62.829v12.999c-21.413 -6.838 -42.378 -7.16 -62.829 0Z" fill="#3f3d56"/><path d="M68.176 222.101c20.491 7.897 41.453 7.569 62.829 0v13H68.176Z" fill="#3f3d56"/><path d="M405.855 199.518h44.145v21.271l-3.943 1.233 -13.118 4.094 -20.58 -4.767 -20.557 -4.763 -10.856 -2.515 -5.42 -2.005c4.509 -6.187 12.709 -11.052 30.328 -12.548" fill="#3f3d56"/><path d="M450 212.067v64.741h-74.474c-0.024 -0.039 -0.039 -0.076 -0.063 -0.116v-0.004a0.786 0.786 0 0 0 -0.063 -0.13q-1.744 -3.51 -3.126 -7.002c-7.816 -19.7 -6.967 -38.878 3.252 -57.489Z" fill="#f2f2f2"/><path x="518.75318" y="308.95298" width="19.30707" height="43.44092" fill="#ccc" d="M407.483 242.684H422.649V276.807H407.483V242.684z"/><path points="498.067 321.365 498.067 314.47 489.793 314.47 489.793 321.365 497.378 321.365 498.067 321.365" fill="#3f3d56" d="M391.234 252.434L391.234 247.018L384.735 247.018L384.735 252.434L390.693 252.434L391.234 252.434Z"/><path points="497.378 326.881 489.793 326.881 489.793 333.777 498.067 333.777 498.067 326.881 497.378 326.881" fill="#3f3d56" d="M390.693 256.767L384.735 256.767L384.735 262.183L391.234 262.183L391.234 256.767L390.693 256.767Z"/><path x="503.58332" y="314.46928" width="8.27448" height="6.89539" fill="#3f3d56" d="M395.567 247.017H402.067V252.433H395.567V247.017z"/><path x="503.58332" y="326.88096" width="8.27448" height="6.89539" fill="#3f3d56" d="M395.567 256.766H402.067V262.183H395.567V256.766z"/><path points="554.609 321.365 554.609 314.47 546.335 314.47 546.335 321.365 553.92 321.365 554.609 321.365" fill="#3f3d56" d="M435.648 252.434L435.648 247.018L429.149 247.018L429.149 252.434L435.107 252.434L435.648 252.434Z"/><path points="553.92 326.881 546.335 326.881 546.335 333.777 554.609 333.777 554.609 326.881 553.92 326.881" fill="#3f3d56" d="M435.107 256.767L429.149 256.767L429.149 262.183L435.648 262.183L435.648 256.767L435.107 256.767Z"/><path x="560.12543" y="314.46928" width="8.27448" height="6.89539" fill="#3f3d56" d="M439.981 247.017H446.481V252.433H439.981V247.017z"/><path x="560.12543" y="326.88096" width="8.27448" height="6.89539" fill="#3f3d56" d="M439.981 256.766H446.481V262.183H439.981V256.766z"/><path d="M391.804 174.382h9.336a34.719 34.719 0 0 1 34.721 34.721h-44.057Z" fill="#3f3d56"/><path d="M109.023 80.121h9.336a34.719 34.719 0 0 1 34.721 34.721h-44.057Z" fill="#3f3d56"/><path d="M258.268 167.312h9.336a34.719 34.719 0 0 1 34.721 34.721h-44.057Z" fill="#3f3d56"/><path x="498.79261" y="282.75053" width="56.0874" height="16.54892" fill="#3f3d56" d="M391.804 222.102H435.861V235.101H391.804V222.102z"/><path x="2.88018" y="351.70996" width="570" height="2" fill="#3f3d56" d="M2.262 276.27H450V277.841H2.262V276.27z"/><path x="53.45087" y="272.7053" width="2" height="79" fill="#3f3d56" d="M41.986 214.211H43.557V276.266H41.986V214.211z"/><path d="M58.056 222.119c0.1 21.699 -15.167 39.36 -15.167 39.36S23.337 243.585 27.359 222.261c4.045 -21.444 16.653 -39.269 15.167 -39.36 0 0 15.428 17.52 15.529 39.219" fill="#f59e0b"/><path x="253.45087" y="272.7053" width="2" height="79" fill="#3f3d56" d="M199.087 214.211H200.658V276.266H199.087V214.211z"/><path d="M215.157 222.119c1.415 21.653 -15.167 39.36 -15.167 39.36s-15.429 -17.52 -15.529 -39.219 15.167 -39.36 15.167 -39.36c-1.489 5.948 14.383 21.699 15.529 39.219" fill="#f59e0b"/><path points="125.513 144.289 212.387 140.039 248.83 170.458 242.387 176.275 184.678 174.976 125.513 144.289" fill="#3f3d56" d="M98.591 113.34L166.831 110.001L195.457 133.896L190.396 138.465L145.065 137.444L98.591 113.34Z"/><path d="m30.501 224.226 -3.676 3.323 -0.448 0.401 -0.935 0.848 -23.18 -0.518v-27.383q-1.131 -0.247 -2.262 -0.471l1.877 -0.094 0.385 0.322 3.59 2.993 10.212 8.531 11.406 9.52Z" fill="#3f3d56"/><path points="315.513 259.289 402.387 255.039 438.83 285.458 432.387 291.275 374.678 289.976 315.513 259.289" fill="#3f3d56" d="M247.837 203.673L316.077 200.334L344.703 224.229L339.642 228.798L294.311 227.777L247.837 203.673Z"/></svg>