<svg xmlns="http://www.w3.org/2000/svg" width="250" height="116.694" viewBox="0 0 250 116.694" xmlns:xlink="http://www.w3.org/1999/xlink" role="img" artist="Katerina Limpitsouni" source="https://undraw.co/"><path d="M227.777 116.47H127.092c-2.738 0 -4.967 -2.464 -4.967 -5.494V36.102a3.083 3.083 0 0 1 1.641 -2.789l38.047 -23.033a15.128 15.128 0 0 1 13.424 -0.014l55.856 23.044a3.083 3.083 0 0 1 1.651 2.793v74.872c0 3.03 -2.228 5.494 -4.967 5.494" fill="#f2f2f2"/><path d="M212.91 116.389H126.449c-2.362 0 -4.283 -1.74 -4.283 -3.878v-52.338a2.178 2.178 0 0 1 1.427 -1.987l40.258 -16.103a15.672 15.672 0 0 1 11.517 -0.006l40.394 16.11a2.175 2.175 0 0 1 1.429 1.988v52.336c0 2.138 -1.921 3.878 -4.283 3.878" fill="#f59e0b"/><path cx="298.68503" cy="194.47994" r="50.53168" fill="#ff6584" d="M87.552 48.758a12.669 12.669 0 0 1 -12.669 12.669 12.669 12.669 0 0 1 -12.669 -12.669 12.669 12.669 0 0 1 25.338 0"/><path cx="319.81038" cy="298.3466" rx="64.00072" ry="80.10973" fill="#f2f2f2" d="M96.224 74.798a16.046 20.084 0 0 1 -16.046 20.084 16.046 20.084 0 0 1 -16.046 -20.084 16.046 20.084 0 0 1 32.091 0"/><path points="319.986 282.238 320.162 282.238 323.327 463.69 316.646 463.69 319.986 282.238" fill="#ccc" d="M80.223 70.759h0.044l0.793 45.492h-1.675z"/><path d="M82.96 100.876a0.396 0.396 0 0 1 -0.166 0.536l-2.301 1.212 -0.369 -0.702 2.301 -1.212a0.396 0.396 0 0 1 0.536 0.166" fill="#ccc"/><path cx="135.81038" cy="298.3466" rx="64.00072" ry="80.10973" fill="#f2f2f2" d="M50.094 74.798a16.046 20.084 0 0 1 -16.046 20.084 16.046 20.084 0 0 1 -16.046 -20.084 16.046 20.084 0 0 1 32.091 0"/><path d="M36.83 101.628a0.397 0.397 0 0 0 -0.536 -0.166l-1.607 0.846 -0.551 -31.549h-0.044l-0.837 45.492h1.675l-0.227 -13.054 1.961 -1.032a0.397 0.397 0 0 0 0.167 -0.536" fill="#ccc"/><path d="M57.058 28.513c11.229 0 20.355 21.158 20.355 35.212s-9.103 25.449 -20.331 25.449 -20.331 -11.394 -20.331 -25.449 9.079 -35.212 20.307 -35.212" fill="#f59e0b"/><path d="M60.606 97.723a0.503 0.503 0 0 0 -0.679 -0.211l-2.036 1.072 -0.697 -39.976h-0.056l-1.061 57.643h2.122l-0.288 -16.542 2.484 -1.308a0.503 0.503 0 0 0 0.211 -0.679" fill="#3f3d56"/><path d="M149.492 80.422v-5.413a2.663 2.663 0 0 0 -2.662 -2.662h-13.659a2.663 2.663 0 0 0 -2.662 2.662v5.413Z" fill="#fff"/><path d="M130.509 81.272v8.388a2.663 2.663 0 0 0 2.662 2.662h13.659a2.663 2.663 0 0 0 2.662 -2.662V81.272Z" fill="#fff"/><path d="m213.904 65.564 -41.009 -15.033a11.222 11.222 0 0 0 -7.721 0l-41.01 15.033a5.719 5.719 0 0 1 -7.688 -5.37 5.717 5.717 0 0 1 3.751 -5.37l44.947 -16.477a11.222 11.222 0 0 1 7.721 0l44.947 16.477a5.717 5.717 0 0 1 3.751 5.37 5.719 5.719 0 0 1 -7.688 5.37" fill="#3f3d56"/><path d="M175.656 116.639h-10.961a4.392 4.392 0 0 1 -4.387 -4.387v-26.544a4.392 4.392 0 0 1 4.387 -4.387h10.961a4.392 4.392 0 0 1 4.387 4.387v26.544a4.392 4.392 0 0 1 -4.387 4.387m-10.961 -34.567a3.639 3.639 0 0 0 -3.635 3.635v26.544a3.639 3.639 0 0 0 3.635 3.635h10.961a3.639 3.639 0 0 0 3.635 -3.635v-26.544a3.639 3.639 0 0 0 -3.635 -3.635Z" fill="#3f3d56"/><path d="M176.719 24.866a7.932 7.932 0 0 0 -15.801 0Z" fill="#fff"/><path d="M160.889 25.716a7.931 7.931 0 0 0 15.859 0Z" fill="#fff"/><path d="M175.477 34.483h-13.317a2.392 2.392 0 0 1 0 -4.784h13.317a2.392 2.392 0 0 1 0 4.784" fill="#ccc"/><path d="M130.651 89.614a2.141 2.141 0 0 0 0 4.283h18.7a2.141 2.141 0 0 0 0 -4.283Z" fill="#ccc"/><path d="M188.734 81.272v8.388a2.663 2.663 0 0 0 2.662 2.662H205.056a2.663 2.663 0 0 0 2.662 -2.662V81.272Z" fill="#fff"/><path d="M207.717 80.422v-5.413a2.663 2.663 0 0 0 -2.662 -2.662h-13.659a2.663 2.663 0 0 0 -2.662 2.662v5.413Z" fill="#fff"/><path cx="704.77278" cy="391.97653" r="6.21572" fill="#3f3d56" d="M178.251 98.272a1.558 1.558 0 0 1 -1.558 1.558 1.558 1.558 0 0 1 -1.558 -1.558 1.558 1.558 0 0 1 3.117 0"/><path points="495.986 395.977 471.503 357.893 472.636 357.164 495.868 393.303 514.799 357.216 515.991 357.841 495.986 395.977" fill="#3f3d56" d="m124.348 99.274 -6.138 -9.548 0.284 -0.183 5.824 9.061 4.746 -9.047 0.299 0.157z"/><path d="M129.346 86.597h-14.602v-0.253a3.122 3.122 0 0 0 -3.123 -3.123 3.122 3.122 0 0 0 -3.123 3.123v0.253h-1.435a3.123 3.123 0 1 0 0 6.246h1.435v23.601c6.223 -0.125 -0.045 0.126 6.246 0v-23.601h14.602a3.123 3.123 0 0 0 0 -6.246" fill="#3f3d56"/><path cx="444.88714" cy="357.52843" r="4.71326" fill="#fff" d="M112.718 89.636a1.182 1.182 0 0 1 -1.182 1.182 1.182 1.182 0 0 1 -1.182 -1.182 1.182 1.182 0 0 1 2.363 0"/><path d="M131.202 105.291h-13.502a2.408 2.408 0 0 1 -2.406 -2.406v-4.387a2.408 2.408 0 0 1 2.406 -2.406h13.502a2.408 2.408 0 0 1 2.406 2.406v4.387a2.408 2.408 0 0 1 -2.406 2.406" fill="#ccc"/><path x="475.18665" y="397.25445" width="41.74598" height="7.40655" rx="3.70327" fill="#f59e0b" d="M120.062 99.595h8.609a0.928 0.928 0 0 1 0.929 0.928 0.928 0.928 0 0 1 -0.929 0.928h-8.609a0.928 0.928 0 0 1 -0.928 -0.928 0.928 0.928 0 0 1 0.928 -0.928"/><path d="M249.806 116.694H0.194a0.194 0.194 0 0 1 0 -0.388h249.613a0.194 0.194 0 0 1 0 0.388" fill="#ccc"/><path d="M207.434 94.147h-18.7a2.392 2.392 0 1 1 0 -4.784h18.7a2.392 2.392 0 0 1 0 4.784" fill="#ccc"/><path d="M232.554 38.599s-4.535 -0.322 -13.789 -0.752C207.734 18.542 171.882 13.889 171.882 0h44.066a16.624 16.624 0 0 1 16.624 16.624Z" fill="#ccc"/><path d="M194.334 5.076a0.376 0.376 0 0 0 -0.376 0.376v12.556a0.376 0.376 0 0 0 0.376 0.376h7.821a0.376 0.376 0 0 0 0.376 -0.376v-12.556a0.376 0.376 0 0 0 -0.376 -0.376Z" fill="#f2f2f2"/><path d="m216.057 37.586 -41.01 -24.717a11.222 11.222 0 0 0 -7.721 0l-41.01 24.718a5.719 5.719 0 0 1 -7.688 -5.37 5.717 5.717 0 0 1 3.751 -5.37l44.947 -26.161a11.222 11.222 0 0 1 7.721 0l44.947 26.161a5.717 5.717 0 0 1 3.751 5.37 5.719 5.719 0 0 1 -7.688 5.37" fill="#ccc"/></svg>