<svg xmlns="http://www.w3.org/2000/svg" width="480" height="405.676" viewBox="0 0 480 405.676" xmlns:xlink="http://www.w3.org/1999/xlink" role="img" artist="Katerina Limpitsouni" source="https://undraw.co/"><path d="M368.608 376.341H151.248a5.088 5.088 0 0 1 -5.083 -5.083V222.836a5.088 5.088 0 0 1 5.083 -5.083h217.36a5.088 5.088 0 0 1 5.083 5.083v148.423a5.088 5.088 0 0 1 -5.083 5.083" fill="#fff"/><path d="M368.608 376.341H151.248a5.088 5.088 0 0 1 -5.083 -5.083V222.836a5.088 5.088 0 0 1 5.083 -5.083h217.36a5.088 5.088 0 0 1 5.083 5.083v148.423a5.088 5.088 0 0 1 -5.083 5.083M151.248 218.883a3.959 3.959 0 0 0 -3.953 3.953v148.423a3.959 3.959 0 0 0 3.953 3.953h217.36a3.959 3.959 0 0 0 3.953 -3.953V222.836a3.959 3.959 0 0 0 -3.953 -3.953Z" fill="#3f3d56"/><path d="M285.089 375.448h-50.322V292.139a7.46 7.46 0 0 1 7.453 -7.452h35.417a7.46 7.46 0 0 1 7.453 7.453Z" fill="#e6e6e6"/><path d="M356.754 186.116h-28.738v-48.027a5.088 5.088 0 0 1 5.083 -5.083h18.573a5.088 5.088 0 0 1 5.083 5.083Z" fill="#fff"/><path d="M356.754 186.116h-28.738v-48.027a5.088 5.088 0 0 1 5.083 -5.083h18.573a5.088 5.088 0 0 1 5.083 5.083Zm-27.608 -1.129h26.479v-46.897a3.959 3.959 0 0 0 -3.953 -3.953h-18.573a3.959 3.959 0 0 0 -3.953 3.953Z" fill="#3f3d56"/><path cx="344.81988" cy="267.38662" r="97.99154" fill="#f2f2f2" d="M250.068 151.001A55.339 55.339 0 0 1 194.729 206.339A55.339 55.339 0 0 1 139.391 151.001A55.339 55.339 0 0 1 250.068 151.001z"/><path d="M343.246 124.587c-4.984 -0.157 -9.42 -4.702 -9.456 -9.688s4.335 -9.595 9.316 -9.822c11.091 -0.507 20.172 -12.409 17.731 -23.241s-15.749 -17.688 -25.985 -13.39c-7.853 3.298 -15.788 -7.092 -13.798 -15.373s9.521 -13.842 16.49 -18.739 14.423 -10.646 16.105 -18.996 -6.928 -18.35 -14.515 -14.48" fill="#e6e6e6"/><path d="M213.512 308.887h-42.507a6.402 6.402 0 0 1 -6.396 -6.396v-35.044a6.402 6.402 0 0 1 6.396 -6.396h42.507a6.402 6.402 0 0 1 6.396 6.396v35.044a6.402 6.402 0 0 1 -6.396 6.396" fill="#e6e6e6"/><path d="M349.834 308.887h-42.507a6.402 6.402 0 0 1 -6.396 -6.396v-35.044a6.402 6.402 0 0 1 6.396 -6.396h42.507a6.402 6.402 0 0 1 6.396 6.396v35.044a6.402 6.402 0 0 1 -6.396 6.396" fill="#e6e6e6"/><path d="M129.937 220.806v-22.836a9.951 9.951 0 0 1 5.013 -8.64l126.881 -72.518a9.951 9.951 0 0 1 10.289 0.25l113.199 72.2a9.951 9.951 0 0 1 4.6 8.39v23.154a9.951 9.951 0 0 1 -9.952 9.952H139.889a9.951 9.951 0 0 1 -9.952 -9.951" fill="#f59e0b"/><path d="M379.968 220.591H139.889a9.951 9.951 0 0 1 -9.952 -9.952v9.036a9.951 9.951 0 0 0 9.952 9.952h240.079a9.951 9.951 0 0 0 9.952 -9.952v-9.036a9.951 9.951 0 0 1 -9.952 9.952" opacity="0.2"/><path d="M399.46 298.735c0 -17.512 14.196 -59.067 31.708 -59.067s31.708 41.555 31.708 59.067a31.708 31.708 0 0 1 -63.416 0" fill="#f2f2f2"/><path d="M431.169 375.667a0.565 0.565 0 0 1 -0.565 -0.565v-113.855a0.565 0.565 0 0 1 1.129 0v113.855a0.565 0.565 0 0 1 -0.565 0.565" fill="#3f3d56"/><path d="M431.168 311.737a0.565 0.565 0 0 1 -0.408 -0.954l16.118 -16.914a0.565 0.565 0 1 1 0.818 0.779l-16.118 16.914a0.565 0.565 0 0 1 -0.409 0.175" fill="#3f3d56"/><path d="M431.168 283.219a0.565 0.565 0 0 1 -0.381 -0.148l-13.93 -12.736a0.565 0.565 0 1 1 0.762 -0.833l13.929 12.736a0.565 0.565 0 0 1 -0.381 0.981" fill="#3f3d56"/><path d="M12.44 263.893c0 -25.761 20.884 -86.89 46.644 -86.89s46.644 61.129 46.644 86.89a46.644 46.644 0 1 1 -93.288 0" fill="#f59e0b"/><path d="M59.084 376.797a0.565 0.565 0 0 1 -0.565 -0.565V208.746a0.565 0.565 0 0 1 1.129 0v167.486a0.565 0.565 0 0 1 -0.565 0.565" fill="#3f3d56"/><path d="M59.084 282.753a0.565 0.565 0 0 1 -0.408 -0.954l23.711 -24.882a0.565 0.565 0 1 1 0.818 0.779l-23.711 24.882a0.565 0.565 0 0 1 -0.409 0.175" fill="#3f3d56"/><path d="M59.084 240.802a0.565 0.565 0 0 1 -0.381 -0.147l-20.491 -18.735a0.565 0.565 0 0 1 0.762 -0.834l20.491 18.735a0.565 0.565 0 0 1 -0.381 0.981" fill="#3f3d56"/><path d="M409.018 375.612c0.054 0.041 0.11 0.078 0.164 0.119h45.918c0.9 -3.645 1.218 -7.295 -0.126 -10.464 -1.915 -4.516 -7.582 -7.335 -12.087 -5.395a6.89 6.89 0 0 0 -2.702 2.138c-1.761 -3.152 -4.919 -5.528 -8.565 -5.525 -4.567 0.003 -8.365 3.738 -9.604 8.052 -1.996 -3.369 -5.938 -5.722 -9.79 -4.71 -6.444 1.694 -8.479 11.711 -3.208 15.785" fill="#e6e6e6"/><path d="M14.536 376.62c0.108 0.084 0.222 0.158 0.331 0.24h92.696c1.817 -7.359 2.458 -14.726 -0.255 -21.124 -3.866 -9.116 -15.306 -14.807 -24.401 -10.892a13.892 13.892 0 0 0 -5.455 4.316c-3.554 -6.362 -9.93 -11.159 -17.289 -11.154 -9.22 0.006 -16.886 7.546 -19.388 16.256 -4.028 -6.8 -11.985 -11.552 -19.763 -9.508 -13.008 3.419 -17.117 23.641 -6.475 31.865" fill="#e6e6e6"/><path x="175.01766" y="756.04239" width="849.96461" height="2" transform="rotate(-.108 -47487.453 93209.605)" fill="#3f3d56" d="M98.837 426.958H578.836V428.088H98.837V426.958z"/><path d="M161.972 352.231a3.152 3.152 0 0 0 -2.818 -3.927l-17.934 -22.423 -4.438 4.136 18.945 21.418a3.169 3.169 0 0 0 6.244 0.795" fill="#ffb8b8"/><path d="m144.661 329.444 -5.668 4.34a1.414 1.414 0 0 1 -2.095 -0.437l-3.453 -6.224a3.925 3.925 0 0 1 6.247 -4.755l5.093 4.938a1.414 1.414 0 0 1 -0.125 2.137" fill="#3f3d56"/><path cx="239.30421" cy="546.63506" r="12.76243" fill="#ffb8b8" d="M142.349 308.7A7.207 7.207 0 0 1 135.142 315.907A7.207 7.207 0 0 1 127.934 308.7A7.207 7.207 0 0 1 142.349 308.7z"/><path points="266.547 712.182 272.918 712.182 272.311 700.259 262.909 700.259 266.547 712.182" fill="#ffb8b8" d="M150.527 402.189L154.124 402.189L153.782 395.456L148.472 395.456L150.527 402.189Z"/><path d="M149.609 401.014h7.085a4.515 4.515 0 0 1 4.516 4.515v0.147h-11.6Z" fill="#2f2e41"/><path points="198.626 703.163 204.046 706.511 209.796 696.048 203.238 691.945 198.626 703.163" fill="#ffb8b8" d="M112.17 397.096L115.23 398.986L118.478 393.078L114.774 390.761L112.17 397.096Z"/><path d="m112.006 395.614 6.027 3.723a4.515 4.515 0 0 1 1.468 6.214l-0.077 0.125 -9.869 -6.096Z" fill="#2f2e41"/><path d="M150.267 400.215a1.316 1.316 0 0 1 -1.232 -0.851l-13.013 -31.113a0.44 0.44 0 0 0 -0.778 -0.094l-17.878 28.162a1.316 1.316 0 0 1 -1.655 0.46l-2.446 -1.141a1.327 1.327 0 0 1 -0.647 -1.738l14.646 -32.648c-0.32 -0.778 -3.439 -8.767 1.354 -12.714l0.034 -0.021 12.996 -5.797 0.328 9.97 12.954 44.946a1.321 1.321 0 0 1 -0.933 1.643l-3.393 0.892a1.355 1.355 0 0 1 -0.339 0.044" fill="#2f2e41"/><path d="M141.846 328.136c-0.495 -1.986 -1.197 -3.988 -2.137 -4.912a11.859 11.859 0 0 1 -0.972 -1.071 7.116 7.116 0 0 0 -2.333 -1.912c0.331 -0.184 0.525 -0.404 0.525 -0.64 0 -0.648 -1.445 -1.174 -3.228 -1.174s-3.228 0.525 -3.228 1.174a0.57 0.57 0 0 0 0.192 0.395 6.867 6.867 0 0 0 -4.247 5.726c-0.417 4.465 -0.539 10.172 0.923 13.783a13.288 13.288 0 0 1 0.274 9.367 1.172 1.172 0 0 0 1.552 1.458l12.896 -5.197a1.175 1.175 0 0 0 0.735 -1.089v-7.893a33.15 33.15 0 0 0 -0.952 -8.015" fill="#3f3d56"/><path d="M117.171 360.644a3.152 3.152 0 0 0 2.185 -4.312l10.09 -26.608 -5.117 -1.321 -9.333 26.334a3.169 3.169 0 0 0 2.175 5.907" fill="#ffb8b8"/><path d="m129.404 334.773 -6.466 -3.027a1.414 1.414 0 0 1 -0.579 -2.06l3.929 -5.934a3.925 3.925 0 0 1 7.101 3.349l-2.032 6.798a1.414 1.414 0 0 1 -1.953 0.875" fill="#3f3d56"/><path d="M141.762 306.926a1.638 1.638 0 0 0 0.945 -0.171c0.532 -0.348 0.479 -1.138 0.299 -1.748a9.098 9.098 0 0 0 -6.266 -6.097c-1.026 -0.273 -2.324 -0.262 -2.911 0.622a7.411 7.411 0 0 0 -9.589 1.178 10.052 10.052 0 0 0 -2.251 4.796c-0.616 3.017 -3.253 9.241 -1.792 11.952 0.972 1.804 5.447 0.399 7.339 1.184a6.252 6.252 0 0 0 5.874 -0.474 4.795 4.795 0 0 0 1.843 -5.404 16.942 16.942 0 0 0 -1.143 -2.08 3.349 3.349 0 0 1 -0.497 -2.272c0.265 -1.205 5.954 -1.53 8.148 -1.485" fill="#2f2e41"/></svg>