<svg xmlns="http://www.w3.org/2000/svg" width="250" height="202.765" viewBox="0 0 250 202.765" xmlns:xlink="http://www.w3.org/1999/xlink" role="img" artist="Katerina Limpitsouni" source="https://undraw.co/"><path d="M199.581 36.934c-1.298 14.309 -4.998 29.397 -10.801 43.955 -7.176 18.003 -16.979 33.859 -28.351 45.856l-0.631 -0.551c11.317 -11.939 21.076 -27.726 28.222 -45.654 6.458 -16.201 10.299 -33.062 11.113 -48.75l0.806 0.135q-0.128 2.485 -0.358 5.008" fill="#f2f2f2"/><path d="M204.754 120.038c-15.973 25.412 -35.351 43.568 -54.566 51.125l-0.389 -0.713c19.082 -7.504 38.347 -25.568 54.247 -50.864Z" fill="#f2f2f2"/><path d="M199.194 54.749c-1.299 14.309 -4.998 29.397 -10.801 43.955 -7.176 18.003 -16.979 33.859 -28.351 45.856l-0.631 -0.551c11.317 -11.939 21.076 -27.726 28.222 -45.654 6.458 -16.201 10.299 -33.062 11.113 -48.751l0.807 0.135q-0.128 2.485 -0.358 5.008" fill="#f2f2f2"/><path d="M19.879 91.485H9.399a1.483 1.483 0 0 1 -1.165 -0.561 1.45 1.45 0 0 1 -0.284 -1.234 28.5 28.5 0 0 0 -0.183 -13.358 1.486 1.486 0 0 1 0.577 -1.561c5.389 -3.876 9.633 -3.763 12.614 0.335a1.5 1.5 0 0 1 0.261 0.629 46.667 46.667 0 0 1 0.131 14.474 1.478 1.478 0 0 1 -1.469 1.276" fill="#e6e6e6"/><path d="M16.63 80.99h-3.605a0.752 0.752 0 0 1 0 -1.503h3.605a0.752 0.752 0 0 1 0 1.503" fill="#fff"/><path d="M16.63 83.626h-3.605a0.752 0.752 0 0 1 0 -1.503h3.605a0.752 0.752 0 0 1 0 1.503" fill="#fff"/><path d="M16.63 86.262h-3.605a0.752 0.752 0 0 1 0 -1.503h3.605a0.752 0.752 0 0 1 0 1.503" fill="#fff"/><path d="M210.344 138.278h-10.48a1.483 1.483 0 0 1 -1.165 -0.561 1.45 1.45 0 0 1 -0.284 -1.234 28.5 28.5 0 0 0 -0.183 -13.358 1.486 1.486 0 0 1 0.577 -1.561c5.389 -3.876 9.633 -3.763 12.614 0.335a1.5 1.5 0 0 1 0.261 0.629 46.667 46.667 0 0 1 0.131 14.474 1.478 1.478 0 0 1 -1.469 1.276" fill="#e6e6e6"/><path d="M207.094 127.782h-3.605a0.752 0.752 0 0 1 0 -1.503h3.605a0.752 0.752 0 0 1 0 1.503" fill="#fff"/><path d="M207.094 130.419h-3.605a0.752 0.752 0 0 1 0 -1.503h3.605a0.752 0.752 0 0 1 0 1.503" fill="#fff"/><path d="M207.094 133.055h-3.605a0.752 0.752 0 0 1 0 -1.503h3.605a0.752 0.752 0 0 1 0 1.503" fill="#fff"/><path d="M250 202.373a0.391 0.391 0 0 1 -0.392 0.392H0.392a0.392 0.392 0 0 1 0 -0.784h249.216a0.391 0.391 0 0 1 0.392 0.392" fill="#ccc"/><path d="m65.741 178.363 -0.654 -9.091a29.389 29.389 0 0 0 -13.807 -3.096c6.733 5.204 6.193 15.605 10.856 22.724a17.689 17.689 0 0 0 13.19 7.817l5.603 3.223a29.639 29.639 0 0 0 -6.902 -23.84 28.667 28.667 0 0 0 -5.394 -4.743c-1.225 3.516 -2.894 7.006 -2.894 7.006" fill="#f2f2f2"/><path d="m184.259 179.682 0.653 -9.091a29.389 29.389 0 0 1 13.807 -3.096c-6.733 5.204 -6.193 15.605 -10.856 22.724a17.689 17.689 0 0 1 -13.19 7.817l-5.603 3.223a29.639 29.639 0 0 1 6.902 -23.84 28.667 28.667 0 0 1 5.394 -4.743c1.225 3.516 2.894 7.006 2.894 7.006" fill="#f2f2f2"/><path cx="370.33502" cy="214.94235" r="19" fill="#f59e0b" d="M128.295 70.829a6.261 6.261 0 0 1 -6.261 6.261 6.261 6.261 0 0 1 -6.261 -6.261 6.261 6.261 0 0 1 12.522 0"/><path d="M125.248 68.219a0.506 0.506 0 0 0 -0.698 0 20.778 20.778 0 0 0 -3.553 3.629l-0.759 -1.469c-0.292 -0.565 -1.146 -0.066 -0.853 0.499l1.111 2.149a0.5 0.5 0 0 0 0.853 0 20 20 0 0 1 3.901 -4.109 0.498 0.498 0 0 0 0 -0.699" fill="#fff"/><path d="m94.02 88.583 -9.442 -14.827 10.933 -5.856 2.869 11.313 20.218 10.926a4.372 4.372 0 1 1 -2.488 5.947Z" fill="#a0616a"/><path d="M77.681 55.972c-2.966 4.356 7.576 20.188 7.576 20.188 0.514 -1.107 5.423 11.324 6.246 10.59 2.337 -2.087 5.996 -7.901 8.029 -8.16 1.163 -0.148 -2.697 -8.396 -2.697 -8.396s-1.764 -4.871 -4.158 -11.092a11.172 11.172 0 0 0 -8.115 -7.096s-3.913 -0.39 -6.88 3.966" fill="#3f3d56"/><path points="236.175 600.491 249.782 600.49 256.255 548.005 236.172 548.006 236.175 600.491" fill="#a0616a" d="M77.826 197.876h4.484l2.133 -17.296 -6.618 0.001z"/><path d="M76.681 196.412h1.262l4.928 -2.004 2.641 2.003h0.001a5.628 5.628 0 0 1 5.628 5.627v0.183l-14.458 0.001Z" fill="#2f2e41"/><path points="299.391 600.491 312.998 600.49 319.472 548.005 299.389 548.006 299.391 600.491" fill="#a0616a" d="M98.657 197.876h4.484l2.133 -17.296 -6.618 0.001z"/><path d="M97.513 196.412h1.262l4.927 -2.004 2.641 2.003a5.628 5.628 0 0 1 5.628 5.627v0.183l-14.458 0.001Z" fill="#2f2e41"/><path d="m100.597 103.323 -29.165 0.729c-5.539 3.008 -5.623 9.521 -3.808 17.252 0 0 -0.613 4.595 0.613 5.821s1.838 1.226 1.225 3.369 2.624 5.647 2.231 6.04 -1.312 2.537 -1.312 2.537l3.063 17.462s2.144 30.328 2.757 30.941 1.226 0 0.613 1.532 -1.226 0.919 -0.613 1.532a22.778 22.778 0 0 1 1.532 1.838h7.407s0.558 -3.063 0.558 -3.369 0.613 -2.144 0.613 -2.451 -0.542 -0.848 -0.542 -0.848a10 10 0 0 1 -0.377 -1.909c0 -0.613 -1.838 -24.201 -1.838 -24.201l3.676 -30.634 8.884 30.022s0 26.346 0.613 26.958 0.613 0.307 0.307 1.532 -1.532 0.919 -0.613 1.838 1.226 -0.613 0.919 0.919l-0.307 1.532 9.191 0.132s1.225 -2.582 0.613 -3.502 -0.576 -0.668 0.171 -2.172 1.054 -1.811 0.748 -2.117 -0.307 -1.936 -0.307 -1.936l-1.532 -29.311s-0.307 -30.941 -0.307 -31.86a3.056 3.056 0 0 1 0.254 -1.378v-1.248l-1.173 -4.42Z" fill="#2f2e41"/><path cx="252.11349" cy="102.01522" r="27.4997" fill="#a0616a" d="M92.139 33.617a9.061 9.061 0 0 1 -9.062 9.062 9.061 9.061 0 0 1 -9.062 -9.062 9.062 9.062 0 0 1 18.124 0"/><path d="M87.608 48.667c1.952 1.161 3.12 3.293 3.791 5.463a51.667 51.667 0 0 1 2.225 12.369l0.708 12.568 8.769 26.762c-7.6 6.431 -36.168 1.462 -36.168 1.462s-0.877 -0.292 0 -1.169 1.731 -0.1 0.854 -0.977 -0.272 0.1 0.02 -0.777 0 -0.292 -0.292 -0.584 2.263 -2.923 2.263 -2.923l-2.339 -15.362 -2.923 -30.986c3.508 -4.384 10.562 -6.969 10.562 -6.969l1.823 -3.281 9.114 0.729Z" fill="#3f3d56"/><path d="M90.548 28.802a4.2 4.2 0 0 1 1.492 2.096 29.444 29.444 0 0 0 0.019 -4.112c-0.107 -0.962 -0.784 -1.179 -1.568 -1.429 -0.708 -0.227 -1.51 -0.483 -1.726 -1.417 -2.849 -2.771 -7.807 -2.631 -11.201 -1.665 -1.867 0.532 -2.942 1.216 -3.038 1.616l-0.02 0.082 -0.076 0.038c-1.439 0.719 -1.719 2.992 -1.701 4.772 0.035 3.353 1.193 7.162 1.845 7.471 0.034 0.017 0.043 0.01 0.058 -0.002 0.982 -0.785 2.18 0.059 2.707 0.519a9.424 9.424 0 0 1 8.439 -7.994 15 15 0 0 0 2.034 -0.341 4.278 4.278 0 0 1 1.039 -0.137 2.944 2.944 0 0 1 1.697 0.504" fill="#2f2e41"/><path d="m146.802 110.543 17.432 -17.701 4.593 -14.157 -7.391 -2.989c-3.661 3.693 -7.43 14.998 -7.43 14.998l-11.897 15.968c-0.095 0.035 -0.19 0.072 -0.283 0.117a3.522 3.522 0 1 0 4.977 3.765" fill="#ffb8b8"/><path d="m159.42 77.315 9.346 2.704 0.035 -0.007c3.436 -0.667 6.153 -6.377 7.828 -11.049a6.457 6.457 0 0 0 -3.498 -8.092 6.472 6.472 0 0 0 -6.753 1.03l-4.66 4.013Z" fill="#f59e0b"/><path points="459.521 598.895 444.267 598.894 437.011 540.059 459.523 540.06 459.521 598.895" fill="#ffb8b8" d="m151.423 197.351 -5.027 -0.001 -2.391 -19.388 7.418 0.001z"/><path d="M152.706 195.709h-1.414l-5.524 -2.246 -2.961 2.246h-0.001a6.309 6.309 0 0 0 -6.308 6.308V202.222l16.207 0.001Z" fill="#2f2e41"/><path points="527.204 598.895 511.95 598.894 504.694 540.059 527.207 540.06 527.204 598.895" fill="#ffb8b8" d="m173.726 197.351 -5.026 -0.001 -2.391 -19.388 7.418 0.001z"/><path d="M175.008 195.709h-1.414l-5.524 -2.246 -2.961 2.246h-0.001a6.309 6.309 0 0 0 -6.308 6.308V202.222l16.207 0.001Z" fill="#2f2e41"/><path d="M181.391 113.841s0.587 7.043 -0.881 13.793 -1.467 25.759 -1.467 25.759l-3.228 37.042 -9.684 -0.881 -2.641 -61.921 -9.391 20.836 0.881 2.935 -1.173 0.734s0.879 5.723 0.292 5.723 -2.054 0.88 -2.054 0.88l1.174 30.227 -9.978 -0.293 -3.522 -42.552 3.815 -24.357 0.293 -4.696 1.321 0.054 0.672 -1.962 1.236 -3.374Z" fill="#2f2e41"/><path d="m181.898 115.32 0.052 -0.073c2.793 -3.911 -1.408 -13.308 -2.042 -14.671l2.669 -0.866 -0.601 -5.108 -0.284 -2.277 2.04 -2.04 0.006 -0.051 1.174 -10.271 1.707 -6.822a14.978 14.978 0 0 0 -4.251 -14.515l-3.946 -3.719 -4.794 -7.094h-7.731l-2.651 5.008a11.269 11.269 0 0 0 -8.719 11.506l0.601 13.133 -2.352 16.352 -0.002 2.959 -2.647 2.942 0.578 2.89 -2.014 0.863 -0.889 4.151c-0.368 0.486 -2.798 3.726 -2.798 4.611 0 0.133 0.098 0.262 0.309 0.404 1.656 1.121 10.808 3.407 14.859 1.786 4.315 -1.725 21.467 0.863 21.64 0.889Z" fill="#f59e0b"/><path cx="512.14059" cy="107.06758" r="31.07446" fill="#ffb8b8" d="M179.002 35.281a10.239 10.239 0 0 1 -10.239 10.24 10.239 10.239 0 0 1 -10.24 -10.24 10.24 10.24 0 0 1 20.479 0"/><path d="M167.782 45.687a27.778 27.778 0 0 0 4.727 -0.453c1.544 -0.356 4.952 -2.991 5.881 -4.547 0.69 -1.157 1.104 -2.946 1.331 -4.242a12.444 12.444 0 0 0 -2.432 -9.823 3.944 3.944 0 0 0 -1.623 -1.314 2.222 2.222 0 0 0 -0.176 -0.054 4.856 4.856 0 0 1 -2.452 -1.431 3.889 3.889 0 0 0 -0.412 -0.403 5.978 5.978 0 0 0 -2.525 -1.187c-1.492 -0.358 -3.627 0.091 -6.344 1.336 -1.365 0.626 -2.881 0.451 -4.048 0.229a0.378 0.378 0 0 0 -0.354 0.132 2.683 2.683 0 0 1 -1.805 0.774c-0.414 0.029 -0.836 0.615 -1.342 1.378 -0.115 0.173 -0.249 0.376 -0.347 0.499l-0.02 -0.232 -0.228 0.265a3.257 3.257 0 0 0 1.607 5.266 6.389 6.389 0 0 0 1.282 0.171c0.262 0.017 0.533 0.034 0.793 0.072a4.911 4.911 0 0 1 3.73 3.091 1.283 1.283 0 0 0 1.953 0.573 2.122 2.122 0 0 1 1.923 -0.402 1.406 1.406 0 0 1 0.641 0.69 1.833 1.833 0 0 0 0.717 0.794c1.066 0.516 1.201 2.916 0.874 4.929 -0.314 1.94 -0.998 3.356 -1.663 3.442 -0.512 0.066 -0.57 0.104 -0.604 0.196l-0.031 0.082 0.059 0.074a2.111 2.111 0 0 0 0.889 0.096" fill="#2f2e41"/><path d="m159.286 78.41 -4.922 -6.272c-5.014 1.381 -13.909 9.31 -13.909 9.31l-18.269 7.928a3.519 3.519 0 1 0 2.138 5.703l23.932 -6.677Z" fill="#ffb8b8"/><path d="m158.107 79.844 7.766 -8.657 0.431 -6.134a6.472 6.472 0 0 0 -3.212 -6.03 6.457 6.457 0 0 0 -8.578 2.033c-2.744 4.136 -5.696 9.728 -4.177 12.88l0.016 0.032Z" fill="#f59e0b"/><path d="m86.527 112.384 -20.185 -10.337c-1.436 -0.736 -1.911 -2.686 -1.06 -4.348l13.161 -25.698c0.851 -1.662 2.712 -2.416 4.147 -1.681l20.185 10.337c1.436 0.736 1.911 2.686 1.06 4.348l-13.161 25.698c-0.851 1.662 -2.712 2.416 -4.147 1.681" fill="#e6e6e6"/><path d="m83.077 107.632 -13.714 -7.023c-1.344 -0.689 -1.79 -2.515 -0.993 -4.072l10.933 -21.349c0.797 -1.557 2.54 -2.263 3.885 -1.574l16.563 8.483c1.344 0.689 1.79 2.515 0.993 4.072l-5.94 11.598c-3.551 6.933 -5.738 12.933 -11.728 9.866" fill="#fff"/><path d="m89.858 95.973 -12.147 -6.221a0.759 0.759 0 0 1 0.686 -1.338l12.147 6.221a0.759 0.759 0 0 1 -0.686 1.338" fill="#f59e0b"/><path d="m79.129 93.816 -2.772 -1.419a0.76 0.76 0 0 1 0.686 -1.338l2.772 1.419a0.76 0.76 0 0 1 -0.686 1.338" fill="#f59e0b"/><path d="m82.685 98.973 -7.682 -3.934a0.76 0.76 0 0 1 0.686 -1.338l7.681 3.934a0.76 0.76 0 0 1 -0.685 1.338" fill="#f59e0b"/><path d="m94.664 86.588 -12.147 -6.221a0.759 0.759 0 0 1 0.686 -1.338l12.147 6.221a0.759 0.759 0 0 1 -0.686 1.338" fill="#f59e0b"/><path d="m83.936 84.43 -2.772 -1.419a0.76 0.76 0 0 1 0.686 -1.338l2.772 1.419a0.76 0.76 0 0 1 -0.686 1.338" fill="#f59e0b"/><path d="m87.492 89.588 -7.682 -3.934a0.76 0.76 0 0 1 0.686 -1.338l7.681 3.934a0.76 0.76 0 0 1 -0.685 1.338" fill="#f59e0b"/><path d="m69.8 90.012 -4.56 -16.977 12.186 -2.307 -0.656 11.652 16.011 16.486a4.372 4.372 0 1 1 -4.157 4.927Z" fill="#a0616a"/><path d="M63.993 54.002c-4.136 3.266 1.173 21.53 1.173 21.53 0.822 -0.902 1.777 12.429 2.782 11.976 2.856 -1.29 8.089 -5.739 10.107 -5.376 1.154 0.208 -0.054 -8.818 -0.054 -8.818s-0.222 -5.175 -0.64 -11.828a11.172 11.172 0 0 0 -5.613 -9.203s-3.617 -1.546 -7.753 1.72" fill="#3f3d56"/><path d="m132.816 127.692 -11.014 -5.201a1.722 1.722 0 0 1 -0.946 -1.168 1.689 1.689 0 0 1 0.314 -1.438 33.167 33.167 0 0 0 6.397 -13.923 1.713 1.713 0 0 1 1.678 -1.381c5.618 0.019 9.816 2.07 12.478 6.096a1.733 1.733 0 0 1 0.227 1.442 54.222 54.222 0 0 1 -6.956 14.963 1.72 1.72 0 0 1 -2.178 0.611" fill="#e6e6e6"/><path d="m136.056 120.397 -8.422 -3.977a0.873 0.873 0 1 1 0.746 -1.58l8.422 3.977a0.873 0.873 0 1 1 -0.746 1.58" fill="#fff"/><path d="m137.364 117.626 -8.422 -3.977a0.873 0.873 0 0 1 0.746 -1.58l8.422 3.977a0.873 0.873 0 0 1 -0.746 1.58" fill="#fff"/><path d="m126.111 30.651 -0.784 0.086C121.831 17 115.056 7.484 105.733 3.217c-11.852 -5.426 -26.508 -1.782 -41.268 10.258 -14.834 12.102 -27.967 31.217 -36.978 53.826l-0.761 -0.348C35.777 44.244 48.977 25.037 63.894 12.868c14.993 -12.231 29.947 -15.9 42.11 -10.333 9.591 4.39 16.543 14.112 20.106 28.116" fill="#f2f2f2"/><path d="M39.619 48.54a228.333 228.333 0 0 0 -5.796 13.299c-10.334 25.928 -15.571 52.407 -15.143 76.576l-0.808 -0.086c-0.428 -24.259 4.823 -50.829 15.19 -76.838a228.889 228.889 0 0 1 5.813 -13.337Z" fill="#f2f2f2"/><path d="M39.232 66.355a228.333 228.333 0 0 0 -5.796 13.299c-10.334 25.928 -15.571 52.407 -15.143 76.576l-0.807 -0.086c-0.428 -24.259 4.823 -50.829 15.19 -76.838a228.889 228.889 0 0 1 5.813 -13.337Z" fill="#f2f2f2"/><path cx="265.35647" cy="357.71937" rx="8.8567" ry="10.19466" fill="#ccc" d="M-74.097 122.377a3.359 2.918 33.636 0 1 1.18 4.291 3.359 2.918 33.636 0 1 -4.413 0.569 3.36 2.919 33.636 0 1 3.233 -4.86"/><path cx="842.29847" cy="504.78842" rx="8.8567" ry="10.19466" fill="#ccc" d="M146.516 294.242a3.359 2.918 33.636 0 1 1.181 4.291 3.359 2.918 33.636 0 1 -4.414 0.569 3.36 2.919 33.636 0 1 3.233 -4.86"/></svg>