<svg xmlns="http://www.w3.org/2000/svg" width="200" height="169.032" viewBox="0 0 200 169.032" xmlns:xlink="http://www.w3.org/1999/xlink" role="img" artist="Katerina Limpitsouni" source="https://undraw.co/"><path d="M153.587 156.809H63.02a2.12 2.12 0 0 1 -2.118 -2.118V92.848a2.12 2.12 0 0 1 2.118 -2.118h90.567a2.12 2.12 0 0 1 2.118 2.118v61.843a2.12 2.12 0 0 1 -2.118 2.118" fill="#fff"/><path d="M153.587 156.809H63.02a2.12 2.12 0 0 1 -2.118 -2.118V92.848a2.12 2.12 0 0 1 2.118 -2.118h90.567a2.12 2.12 0 0 1 2.118 2.118v61.843a2.12 2.12 0 0 1 -2.118 2.118M63.02 91.201a1.649 1.649 0 0 0 -1.647 1.647v61.843a1.649 1.649 0 0 0 1.647 1.647h90.567a1.649 1.649 0 0 0 1.647 -1.647V92.848a1.649 1.649 0 0 0 -1.647 -1.647Z" fill="#3f3d56"/><path d="M118.787 156.437h-20.968V121.725a3.108 3.108 0 0 1 3.105 -3.105h14.757a3.108 3.108 0 0 1 3.105 3.105Z" fill="#e6e6e6"/><path d="M148.647 77.548h-11.974v-20.011a2.12 2.12 0 0 1 2.118 -2.118h7.739a2.12 2.12 0 0 1 2.118 2.118Z" fill="#fff"/><path d="M148.647 77.548h-11.974v-20.011a2.12 2.12 0 0 1 2.118 -2.118h7.739a2.12 2.12 0 0 1 2.118 2.118Zm-11.504 -0.471h11.033v-19.541a1.649 1.649 0 0 0 -1.647 -1.647h-7.739a1.649 1.649 0 0 0 -1.647 1.647Z" fill="#3f3d56"/><path cx="344.81988" cy="267.38662" r="97.99154" fill="#f2f2f2" d="M104.195 62.917A23.058 23.058 0 0 1 81.137 85.975A23.058 23.058 0 0 1 58.08 62.917A23.058 23.058 0 0 1 104.195 62.917z"/><path d="M143.019 51.911c-2.077 -0.065 -3.925 -1.959 -3.94 -4.037s1.806 -3.998 3.882 -4.093c4.621 -0.211 8.405 -5.171 7.388 -9.684s-6.562 -7.37 -10.827 -5.579c-3.272 1.374 -6.578 -2.955 -5.749 -6.405s3.967 -5.768 6.871 -7.808 6.01 -4.436 6.71 -7.915 -2.887 -7.646 -6.048 -6.033" fill="#e6e6e6"/><path d="M88.963 128.703h-17.711a2.668 2.668 0 0 1 -2.665 -2.665v-14.602a2.668 2.668 0 0 1 2.665 -2.665h17.711a2.668 2.668 0 0 1 2.665 2.665v14.602a2.668 2.668 0 0 1 -2.665 2.665" fill="#e6e6e6"/><path d="M145.764 128.703h-17.711a2.668 2.668 0 0 1 -2.665 -2.665v-14.602a2.668 2.668 0 0 1 2.665 -2.665h17.711a2.668 2.668 0 0 1 2.665 2.665v14.602a2.668 2.668 0 0 1 -2.665 2.665" fill="#e6e6e6"/><path d="M54.14 92.003v-9.515a4.146 4.146 0 0 1 2.089 -3.6l52.867 -30.216a4.146 4.146 0 0 1 4.287 0.104l47.166 30.084a4.146 4.146 0 0 1 1.917 3.496v9.647a4.146 4.146 0 0 1 -4.147 4.147H58.287a4.146 4.146 0 0 1 -4.147 -4.146" fill="#f59e0b"/><path d="M158.32 91.913H58.287a4.146 4.146 0 0 1 -4.147 -4.147v3.765a4.146 4.146 0 0 0 4.147 4.147h100.033a4.146 4.146 0 0 0 4.147 -4.147v-3.765a4.146 4.146 0 0 1 -4.147 4.147" opacity="0.2"/><path d="M166.442 124.473c0 -7.297 5.915 -24.611 13.212 -24.611s13.212 17.315 13.212 24.611a13.212 13.212 0 0 1 -26.423 0" fill="#f2f2f2"/><path d="M179.654 156.528a0.235 0.235 0 0 1 -0.235 -0.235v-47.439a0.235 0.235 0 0 1 0.471 0v47.439a0.235 0.235 0 0 1 -0.235 0.235" fill="#3f3d56"/><path d="M179.653 129.89a0.235 0.235 0 0 1 -0.17 -0.398l6.716 -7.048a0.235 0.235 0 1 1 0.341 0.325l-6.716 7.048a0.235 0.235 0 0 1 -0.171 0.073" fill="#3f3d56"/><path d="M179.653 118.008a0.235 0.235 0 0 1 -0.159 -0.062l-5.804 -5.307a0.235 0.235 0 1 1 0.318 -0.347l5.804 5.307a0.235 0.235 0 0 1 -0.159 0.409" fill="#3f3d56"/><path d="M5.183 109.955c0 -10.734 8.702 -36.204 19.435 -36.204s19.435 25.47 19.435 36.204a19.435 19.435 0 1 1 -38.87 0" fill="#f59e0b"/><path d="M24.618 156.999a0.235 0.235 0 0 1 -0.235 -0.235V86.978a0.235 0.235 0 0 1 0.471 0v69.786a0.235 0.235 0 0 1 -0.235 0.235" fill="#3f3d56"/><path d="M24.618 117.814a0.235 0.235 0 0 1 -0.17 -0.398l9.879 -10.367a0.235 0.235 0 1 1 0.341 0.325l-9.88 10.367a0.235 0.235 0 0 1 -0.17 0.073" fill="#3f3d56"/><path d="M24.618 100.334a0.235 0.235 0 0 1 -0.159 -0.061l-8.538 -7.806a0.235 0.235 0 0 1 0.318 -0.347l8.538 7.806a0.235 0.235 0 0 1 -0.159 0.409" fill="#3f3d56"/><path d="M170.424 156.505c0.022 0.017 0.046 0.033 0.068 0.049h19.133c0.375 -1.519 0.508 -3.039 -0.052 -4.36 -0.798 -1.882 -3.159 -3.056 -5.036 -2.248a2.871 2.871 0 0 0 -1.126 0.891c-0.734 -1.313 -2.049 -2.303 -3.569 -2.302 -1.903 0.001 -3.485 1.558 -4.002 3.355 -0.832 -1.404 -2.474 -2.384 -4.079 -1.962 -2.685 0.706 -3.533 4.879 -1.337 6.577" fill="#e6e6e6"/><path d="M6.057 156.925c0.045 0.035 0.092 0.066 0.138 0.1h38.623c0.757 -3.066 1.024 -6.136 -0.106 -8.802 -1.611 -3.799 -6.377 -6.17 -10.167 -4.538a5.788 5.788 0 0 0 -2.273 1.798c-1.481 -2.651 -4.137 -4.65 -7.204 -4.647 -3.842 0.003 -7.036 3.144 -8.078 6.773 -1.678 -2.833 -4.994 -4.813 -8.235 -3.962 -5.42 1.425 -7.132 9.85 -2.698 13.277" fill="#e6e6e6"/><path x="175.01766" y="756.04239" width="849.96461" height="2" transform="rotate(-.108 -47487.453 93209.605)" fill="#3f3d56" d="M41.182 177.899H241.182V178.37H41.182V177.899z"/><path d="M67.488 146.763a1.313 1.313 0 0 0 -1.174 -1.636l-7.473 -9.343 -1.849 1.723 7.894 8.924a1.321 1.321 0 0 0 2.602 0.331" fill="#ffb8b8"/><path d="m60.275 137.268 -2.362 1.809a0.589 0.589 0 0 1 -0.873 -0.182l-1.439 -2.593a1.636 1.636 0 0 1 2.603 -1.981l2.122 2.057a0.589 0.589 0 0 1 -0.052 0.89" fill="#3f3d56"/><path cx="239.30421" cy="546.63506" r="12.76243" fill="#ffb8b8" d="M59.312 128.625A3.003 3.003 0 0 1 56.309 131.628A3.003 3.003 0 0 1 53.306 128.625A3.003 3.003 0 0 1 59.312 128.625z"/><path points="266.547 712.182 272.918 712.182 272.311 700.259 262.909 700.259 266.547 712.182" fill="#ffb8b8" d="M62.719 167.579L64.218 167.579L64.076 164.773L61.863 164.773L62.719 167.579Z"/><path d="M62.337 167.089h2.952a1.881 1.881 0 0 1 1.881 1.881v0.061h-4.833Z" fill="#2f2e41"/><path points="198.626 703.163 204.046 706.511 209.796 696.048 203.238 691.945 198.626 703.163" fill="#ffb8b8" d="M46.737 165.457L48.013 166.244L49.366 163.782L47.823 162.817L46.737 165.457Z"/><path d="m46.669 164.839 2.511 1.551a1.881 1.881 0 0 1 0.612 2.589l-0.032 0.052 -4.112 -2.54Z" fill="#2f2e41"/><path d="M62.611 166.756a0.548 0.548 0 0 1 -0.513 -0.355l-5.422 -12.964a0.184 0.184 0 0 0 -0.324 -0.039l-7.449 11.734a0.548 0.548 0 0 1 -0.689 0.192l-1.019 -0.476a0.553 0.553 0 0 1 -0.269 -0.724l6.103 -13.603c-0.133 -0.324 -1.433 -3.653 0.564 -5.297l0.014 -0.009 5.415 -2.416 0.136 4.154 5.398 18.727a0.551 0.551 0 0 1 -0.389 0.685l-1.414 0.372a0.565 0.565 0 0 1 -0.141 0.018" fill="#2f2e41"/><path d="M59.103 136.723c-0.206 -0.828 -0.499 -1.662 -0.89 -2.047a4.941 4.941 0 0 1 -0.405 -0.446 2.965 2.965 0 0 0 -0.972 -0.797c0.138 -0.077 0.219 -0.168 0.219 -0.267 0 -0.27 -0.602 -0.489 -1.345 -0.489s-1.345 0.219 -1.345 0.489a0.238 0.238 0 0 0 0.08 0.165 2.861 2.861 0 0 0 -1.769 2.386c-0.174 1.861 -0.224 4.239 0.384 5.743a5.537 5.537 0 0 1 0.114 3.903 0.488 0.488 0 0 0 0.647 0.608l5.373 -2.165a0.489 0.489 0 0 0 0.306 -0.454v-3.289a13.812 13.812 0 0 0 -0.396 -3.34" fill="#3f3d56"/><path d="M48.821 150.268a1.313 1.313 0 0 0 0.91 -1.797l4.204 -11.087 -2.132 -0.551 -3.889 10.973a1.321 1.321 0 0 0 0.906 2.461" fill="#ffb8b8"/><path d="m53.918 139.489 -2.694 -1.261a0.589 0.589 0 0 1 -0.241 -0.858l1.637 -2.473a1.636 1.636 0 0 1 2.959 1.395l-0.847 2.832a0.589 0.589 0 0 1 -0.814 0.364" fill="#3f3d56"/><path d="M59.067 127.886a0.682 0.682 0 0 0 0.394 -0.071c0.222 -0.145 0.2 -0.474 0.125 -0.728a3.791 3.791 0 0 0 -2.611 -2.541c-0.428 -0.114 -0.969 -0.109 -1.213 0.259a3.088 3.088 0 0 0 -3.995 0.491 4.188 4.188 0 0 0 -0.938 1.998c-0.256 1.257 -1.355 3.851 -0.747 4.98 0.405 0.752 2.27 0.166 3.058 0.493a2.605 2.605 0 0 0 2.448 -0.198 1.998 1.998 0 0 0 0.768 -2.252 7.059 7.059 0 0 0 -0.476 -0.867 1.395 1.395 0 0 1 -0.207 -0.947c0.111 -0.502 2.481 -0.638 3.395 -0.619" fill="#2f2e41"/></svg>