<svg xmlns="http://www.w3.org/2000/svg" width="450" height="364.977" viewBox="0 0 450 364.977" xmlns:xlink="http://www.w3.org/1999/xlink" role="img" artist="Katerina Limpitsouni" source="https://undraw.co/"><path d="M359.246 66.481c-2.337 25.757 -8.997 52.915 -19.441 79.119 -12.916 32.405 -30.562 60.947 -51.032 82.541l-1.136 -0.991c20.371 -21.49 37.937 -49.906 50.799 -82.178 11.624 -29.162 18.538 -59.511 20.004 -87.75l1.451 0.243q-0.231 4.473 -0.644 9.015" fill="#f2f2f2"/><path d="M368.557 216.069c-28.751 45.741 -63.632 78.423 -98.219 92.025l-0.7 -1.283c34.347 -13.508 69.024 -46.023 97.644 -91.555Z" fill="#f2f2f2"/><path d="M358.549 98.549c-2.338 25.756 -8.997 52.914 -19.442 79.119 -12.916 32.405 -30.562 60.947 -51.032 82.541l-1.136 -0.991c20.37 -21.49 37.937 -49.906 50.799 -82.178 11.624 -29.162 18.538 -59.511 20.003 -87.751l1.452 0.243q-0.231 4.473 -0.644 9.015" fill="#f2f2f2"/><path d="M35.782 164.673H16.918a2.669 2.669 0 0 1 -2.097 -1.01 2.61 2.61 0 0 1 -0.511 -2.221 51.307 51.307 0 0 0 -0.33 -24.044 2.675 2.675 0 0 1 1.038 -2.81c9.7 -6.977 17.339 -6.774 22.706 0.603a2.669 2.669 0 0 1 0.469 1.133 83.93 83.93 0 0 1 0.235 26.054 2.663 2.663 0 0 1 -2.645 2.297" fill="#e6e6e6"/><path d="M29.934 145.782h-6.489a1.353 1.353 0 0 1 0 -2.706h6.489a1.353 1.353 0 0 1 0 2.706" fill="#fff"/><path d="M29.934 150.527h-6.489a1.353 1.353 0 0 1 0 -2.706h6.489a1.353 1.353 0 0 1 0 2.706" fill="#fff"/><path d="M29.934 155.272h-6.489a1.353 1.353 0 0 1 0 -2.706h6.489a1.353 1.353 0 0 1 0 2.706" fill="#fff"/><path d="M378.619 248.9h-18.864a2.669 2.669 0 0 1 -2.097 -1.01 2.61 2.61 0 0 1 -0.511 -2.221 51.307 51.307 0 0 0 -0.33 -24.044 2.675 2.675 0 0 1 1.038 -2.81c9.7 -6.977 17.339 -6.774 22.706 0.603a2.669 2.669 0 0 1 0.469 1.133 83.93 83.93 0 0 1 0.235 26.054 2.663 2.663 0 0 1 -2.645 2.297" fill="#e6e6e6"/><path d="M372.77 230.008h-6.489a1.353 1.353 0 0 1 0 -2.706h6.489a1.353 1.353 0 0 1 0 2.706" fill="#fff"/><path d="M372.77 234.754h-6.489a1.353 1.353 0 0 1 0 -2.706h6.489a1.353 1.353 0 0 1 0 2.706" fill="#fff"/><path d="M372.77 239.499h-6.489a1.353 1.353 0 0 1 0 -2.706h6.489a1.353 1.353 0 0 1 0 2.706" fill="#fff"/><path d="M450 364.271a0.703 0.703 0 0 1 -0.706 0.706H0.706a0.706 0.706 0 0 1 0 -1.412h448.588a0.704 0.704 0 0 1 0.706 0.706" fill="#ccc"/><path d="m118.334 321.054 -1.177 -16.364a52.932 52.932 0 0 0 -24.852 -5.573c12.119 9.368 11.148 28.089 19.541 40.903a31.84 31.84 0 0 0 23.742 14.07l10.086 5.802a53.353 53.353 0 0 0 -12.423 -42.912 51.603 51.603 0 0 0 -9.709 -8.538c-2.205 6.329 -5.209 12.611 -5.209 12.611" fill="#f2f2f2"/><path d="m331.666 323.427 1.176 -16.364a52.932 52.932 0 0 1 24.852 -5.573c-12.119 9.368 -11.148 28.089 -19.541 40.903a31.84 31.84 0 0 1 -23.742 14.07l-10.086 5.802a53.353 53.353 0 0 1 12.423 -42.912 51.603 51.603 0 0 1 9.709 -8.538c2.205 6.329 5.21 12.611 5.21 12.611" fill="#f2f2f2"/><path cx="370.33502" cy="214.94235" r="19" fill="#f59e0b" d="M230.931 127.492A11.27 11.27 0 0 1 219.662 138.761A11.27 11.27 0 0 1 208.392 127.492A11.27 11.27 0 0 1 230.931 127.492z"/><path d="M225.447 122.795a0.912 0.912 0 0 0 -1.257 0 37.368 37.368 0 0 0 -6.396 6.532l-1.367 -2.645c-0.526 -1.017 -2.062 -0.119 -1.536 0.899l1.999 3.868a0.9 0.9 0 0 0 1.536 0 36.063 36.063 0 0 1 7.022 -7.396 0.896 0.896 0 0 0 0 -1.258" fill="#fff"/><path d="m169.236 159.449 -16.995 -26.689 19.679 -10.54 5.165 20.363 36.392 19.666a7.869 7.869 0 1 1 -4.478 10.705Z" fill="#a0616a"/><path d="M139.825 100.749c-5.339 7.84 13.636 36.338 13.636 36.338 0.925 -1.993 9.761 20.384 11.242 19.062 4.207 -3.757 10.792 -14.221 14.452 -14.688 2.093 -0.267 -4.855 -15.112 -4.855 -15.112s-3.176 -8.767 -7.484 -19.965a20.108 20.108 0 0 0 -14.607 -12.773s-7.044 -0.702 -12.384 7.138" fill="#3f3d56"/><path points="236.175 600.491 249.782 600.49 256.255 548.005 236.172 548.006 236.175 600.491" fill="#a0616a" d="M140.086 356.177L148.157 356.177L151.996 325.045L140.084 325.046L140.086 356.177Z"/><path d="M138.026 353.542h2.272l8.87 -3.607 4.753 3.606h0.001a10.131 10.131 0 0 1 10.13 10.129v0.329l-26.025 0.001Z" fill="#2f2e41"/><path points="299.391 600.491 312.998 600.49 319.472 548.005 299.389 548.006 299.391 600.491" fill="#a0616a" d="M177.582 356.177L185.653 356.177L189.493 325.045L177.581 325.046L177.582 356.177Z"/><path d="M175.523 353.542h2.272l8.869 -3.607 4.754 3.606a10.131 10.131 0 0 1 10.13 10.129v0.329l-26.024 0.001Z" fill="#2f2e41"/><path d="m181.075 185.981 -52.497 1.312c-9.971 5.415 -10.122 17.137 -6.855 31.053 0 0 -1.103 8.271 1.103 10.477s3.308 2.206 2.205 6.065 4.724 10.165 4.016 10.872 -2.361 4.567 -2.361 4.567l5.514 31.431s3.86 54.591 4.963 55.693 2.206 0 1.103 2.758 -2.206 1.654 -1.103 2.757a40.927 40.927 0 0 1 2.757 3.309h13.332s1.005 -5.514 1.005 -6.065 1.103 -3.86 1.103 -4.412 -0.975 -1.526 -0.975 -1.526a18.15 18.15 0 0 1 -0.679 -3.436c0 -1.103 -3.309 -43.562 -3.309 -43.562l6.617 -55.142 15.991 54.039s0 47.422 1.103 48.525 1.103 0.552 0.552 2.757 -2.758 1.655 -1.103 3.309 2.206 -1.103 1.655 1.655l-0.552 2.757 16.543 0.237s2.205 -4.648 1.103 -6.303 -1.037 -1.202 0.308 -3.909 1.897 -3.259 1.346 -3.81 -0.552 -3.484 -0.552 -3.484l-2.757 -52.76s-0.552 -55.694 -0.552 -57.348a5.516 5.516 0 0 1 0.458 -2.481v-2.246l-2.112 -7.956Z" fill="#2f2e41"/><path cx="252.11349" cy="102.01522" r="27.4997" fill="#a0616a" d="M165.851 60.51A16.311 16.311 0 0 1 149.539 76.821A16.311 16.311 0 0 1 133.228 60.51A16.311 16.311 0 0 1 165.851 60.51z"/><path d="M157.695 87.601c3.514 2.089 5.616 5.928 6.823 9.834a93.123 93.123 0 0 1 4.005 22.265l1.274 22.623 15.785 48.172c-13.68 11.576 -65.103 2.631 -65.103 2.631s-1.578 -0.526 0 -2.105 3.116 -0.18 1.537 -1.759 -0.49 0.18 0.036 -1.398 0 -0.526 -0.526 -1.052 4.073 -5.262 4.073 -5.262l-4.21 -27.651 -5.261 -55.774c6.314 -7.892 19.012 -12.545 19.012 -12.545l3.281 -5.906 16.405 1.312Z" fill="#3f3d56"/><path d="M162.986 51.844a7.557 7.557 0 0 1 2.685 3.772 53.086 53.086 0 0 0 0.035 -7.402c-0.192 -1.732 -1.412 -2.122 -2.823 -2.573 -1.275 -0.408 -2.718 -0.869 -3.106 -2.551 -5.128 -4.988 -14.053 -4.736 -20.162 -2.997 -3.361 0.957 -5.296 2.188 -5.469 2.908l-0.036 0.148 -0.136 0.068c-2.591 1.295 -3.095 5.386 -3.062 8.59 0.063 6.036 2.147 12.891 3.321 13.448 0.062 0.03 0.078 0.018 0.105 -0.004 1.768 -1.413 3.924 0.107 4.872 0.934a16.964 16.964 0 0 1 15.19 -14.39 26.691 26.691 0 0 0 3.661 -0.614 7.711 7.711 0 0 1 1.87 -0.246 5.32 5.32 0 0 1 3.054 0.908" fill="#2f2e41"/><path d="m264.244 198.978 31.377 -31.862 8.267 -25.483 -13.303 -5.381c-6.59 6.647 -13.374 26.997 -13.374 26.997l-21.415 28.743c-0.171 0.063 -0.342 0.13 -0.51 0.211a6.339 6.339 0 1 0 8.959 6.777" fill="#ffb8b8"/><path d="m286.956 139.167 16.823 4.867 0.063 -0.012c6.184 -1.201 11.075 -11.478 14.09 -19.888a11.623 11.623 0 0 0 -6.296 -14.566 11.649 11.649 0 0 0 -12.156 1.854l-8.388 7.223Z" fill="#f59e0b"/><path points="459.521 598.895 444.267 598.894 437.011 540.059 459.523 540.06 459.521 598.895" fill="#ffb8b8" d="M272.562 355.231L263.514 355.23L259.21 320.332L272.563 320.333L272.562 355.231Z"/><path d="M274.87 352.277h-2.546l-9.943 -4.043 -5.329 4.042h-0.001a11.356 11.356 0 0 0 -11.355 11.355v0.369l29.173 0.001Z" fill="#2f2e41"/><path points="527.204 598.895 511.95 598.894 504.694 540.059 527.207 540.06 527.204 598.895" fill="#ffb8b8" d="M312.707 355.231L303.66 355.23L299.356 320.332L312.709 320.333L312.707 355.231Z"/><path d="M315.015 352.277h-2.546l-9.943 -4.043 -5.329 4.042h-0.001a11.356 11.356 0 0 0 -11.355 11.355v0.369l29.173 0.001Z" fill="#2f2e41"/><path d="M326.503 204.913s1.056 12.677 -1.585 24.827 -2.641 46.366 -2.641 46.366l-5.81 66.676 -17.432 -1.585 -4.754 -111.458 -16.903 37.504 1.585 5.283 -2.111 1.321s1.583 10.301 0.526 10.301 -3.698 1.584 -3.698 1.584l2.113 54.408 -17.96 -0.528 -6.339 -76.594 6.867 -43.843 0.528 -8.452 2.377 0.098 1.21 -3.532 2.224 -6.074Z" fill="#2f2e41"/><path d="m327.416 207.576 0.094 -0.132c5.028 -7.039 -2.534 -23.955 -3.675 -26.407l4.804 -1.559 -1.082 -9.195 -0.512 -4.099 3.672 -3.672 0.01 -0.092 2.113 -18.488 3.072 -12.279a26.958 26.958 0 0 0 -7.652 -26.127l-7.102 -6.695 -8.63 -12.77H298.612l-4.772 9.014a20.285 20.285 0 0 0 -15.695 20.711l1.081 23.64 -4.234 29.434 -0.003 5.326 -4.765 5.296 1.04 5.202 -3.626 1.554 -1.601 7.472c-0.663 0.874 -5.036 6.706 -5.036 8.3 0 0.24 0.176 0.471 0.556 0.728 2.981 2.018 19.455 6.133 26.746 3.215 7.767 -3.105 38.64 1.554 38.952 1.601Z" fill="#f59e0b"/><path cx="512.14059" cy="107.06758" r="31.07446" fill="#ffb8b8" d="M322.204 63.506A18.432 18.432 0 0 1 303.773 81.938A18.432 18.432 0 0 1 285.341 63.506A18.432 18.432 0 0 1 322.204 63.506z"/><path d="M302.007 82.236a50.121 50.121 0 0 0 8.509 -0.816c2.779 -0.641 8.913 -5.383 10.585 -8.185 1.242 -2.082 1.987 -5.302 2.395 -7.636a22.409 22.409 0 0 0 -4.377 -17.682 7.082 7.082 0 0 0 -2.921 -2.366 3.559 3.559 0 0 0 -0.317 -0.098 8.737 8.737 0 0 1 -4.413 -2.575 7.118 7.118 0 0 0 -0.741 -0.725 10.76 10.76 0 0 0 -4.545 -2.137c-2.686 -0.645 -6.529 0.163 -11.42 2.405 -2.457 1.126 -5.185 0.812 -7.287 0.412a0.682 0.682 0 0 0 -0.638 0.237 4.828 4.828 0 0 1 -3.249 1.393c-0.746 0.052 -1.504 1.107 -2.416 2.481 -0.207 0.312 -0.448 0.676 -0.624 0.898l-0.036 -0.417 -0.41 0.477a5.862 5.862 0 0 0 2.892 9.478 11.448 11.448 0 0 0 2.307 0.307c0.472 0.03 0.96 0.061 1.428 0.13a8.838 8.838 0 0 1 6.714 5.564 2.311 2.311 0 0 0 3.516 1.031 3.82 3.82 0 0 1 3.462 -0.724 2.533 2.533 0 0 1 1.153 1.242 3.304 3.304 0 0 0 1.291 1.429c1.919 0.928 2.161 5.249 1.574 8.873 -0.566 3.492 -1.797 6.04 -2.994 6.195 -0.922 0.119 -1.026 0.188 -1.088 0.353l-0.056 0.148 0.107 0.134a3.796 3.796 0 0 0 1.601 0.172" fill="#2f2e41"/><path d="m286.715 141.138 -8.86 -11.289c-9.025 2.485 -25.037 16.758 -25.037 16.758l-32.885 14.271a6.335 6.335 0 1 0 3.849 10.265l43.078 -12.018Z" fill="#ffb8b8"/><path d="m284.592 143.719 13.979 -15.583 0.776 -11.042a11.649 11.649 0 0 0 -5.781 -10.854 11.623 11.623 0 0 0 -15.441 3.66c-4.94 7.445 -10.253 17.51 -7.519 23.184l0.028 0.058Z" fill="#f59e0b"/><path d="m155.748 202.291 -36.333 -18.607c-2.584 -1.324 -3.44 -4.834 -1.908 -7.826l23.69 -46.256c1.532 -2.991 4.882 -4.348 7.465 -3.025l36.333 18.607c2.584 1.324 3.44 4.834 1.908 7.826l-23.69 46.256c-1.531 2.992 -4.881 4.348 -7.465 3.025" fill="#e6e6e6"/><path d="m149.539 193.737 -24.685 -12.642c-2.42 -1.24 -3.222 -4.527 -1.787 -7.329l19.68 -38.429c1.435 -2.802 4.572 -4.073 6.993 -2.833l29.814 15.269c2.42 1.24 3.222 4.527 1.787 7.329l-10.692 20.876c-6.392 12.48 -10.329 23.28 -21.11 17.759" fill="#fff"/><path d="m161.744 172.752 -21.864 -11.198a1.367 1.367 0 0 1 1.234 -2.408l21.864 11.197a1.367 1.367 0 0 1 -1.234 2.408" fill="#f59e0b"/><path d="m142.433 168.868 -4.99 -2.555a1.368 1.368 0 0 1 1.234 -2.408l4.989 2.555a1.368 1.368 0 0 1 -1.234 2.409" fill="#f59e0b"/><path d="m148.833 178.152 -13.827 -7.082a1.368 1.368 0 0 1 1.234 -2.408L150.065 175.744a1.368 1.368 0 0 1 -1.233 2.408" fill="#f59e0b"/><path d="m170.396 155.858 -21.864 -11.198a1.367 1.367 0 0 1 1.234 -2.408l21.864 11.197a1.367 1.367 0 0 1 -1.234 2.408" fill="#f59e0b"/><path d="m151.085 151.974 -4.99 -2.555a1.368 1.368 0 0 1 1.234 -2.408l4.989 2.555a1.368 1.368 0 0 1 -1.234 2.409" fill="#f59e0b"/><path d="m157.485 161.258 -13.827 -7.081a1.368 1.368 0 0 1 1.234 -2.408l13.826 7.081a1.368 1.368 0 0 1 -1.233 2.408" fill="#f59e0b"/><path d="m125.64 162.022 -8.208 -30.558 21.934 -4.152 -1.18 20.974 28.82 29.675a7.869 7.869 0 1 1 -7.483 8.869Z" fill="#a0616a"/><path d="M115.187 97.204c-7.445 5.878 2.111 38.754 2.111 38.754 1.479 -1.623 3.199 22.373 5.007 21.556 5.14 -2.322 14.56 -10.33 18.192 -9.677 2.077 0.374 -0.098 -15.873 -0.098 -15.873s-0.4 -9.315 -1.152 -21.29a20.108 20.108 0 0 0 -10.104 -16.566s-6.51 -2.782 -13.955 3.096" fill="#3f3d56"/><path d="m239.069 229.845 -19.826 -9.362a3.102 3.102 0 0 1 -1.702 -2.102 3.037 3.037 0 0 1 0.565 -2.589 59.67 59.67 0 0 0 11.515 -25.062 3.084 3.084 0 0 1 3.02 -2.485c10.112 0.034 17.669 3.726 22.461 10.973a3.12 3.12 0 0 1 0.408 2.595 97.572 97.572 0 0 1 -12.52 26.933 3.096 3.096 0 0 1 -3.921 1.1" fill="#e6e6e6"/><path d="m244.901 216.714 -15.16 -7.159a1.572 1.572 0 1 1 1.343 -2.844l15.16 7.159a1.572 1.572 0 1 1 -1.343 2.844" fill="#fff"/><path d="M247.256 211.727 232.097 204.569a1.572 1.572 0 0 1 1.343 -2.844l15.16 7.159a1.572 1.572 0 0 1 -1.343 2.844" fill="#fff"/><path d="m226.999 55.171 -1.411 0.154c-6.292 -24.725 -18.487 -41.853 -35.269 -49.535 -21.334 -9.766 -47.714 -3.208 -74.282 18.465 -26.702 21.783 -50.341 56.19 -66.561 96.886l-1.369 -0.627C64.398 79.64 88.158 45.067 115.01 23.163 141.997 1.148 168.915 -5.457 190.808 4.564c17.263 7.902 29.778 25.402 36.191 50.608" fill="#f2f2f2"/><path d="M71.315 87.372a410.455 410.455 0 0 0 -10.433 23.938C42.281 157.98 32.854 205.642 33.625 249.147l-1.454 -0.155c-0.771 -43.667 8.682 -91.493 27.342 -138.309a411.641 411.641 0 0 1 10.463 -24.006Z" fill="#f2f2f2"/><path d="M70.617 119.439a410.455 410.455 0 0 0 -10.433 23.938c-18.601 46.67 -28.027 94.332 -27.257 137.837l-1.453 -0.155c-0.771 -43.666 8.682 -91.492 27.342 -138.308a411.641 411.641 0 0 1 10.463 -24.006Z" fill="#f2f2f2"/><path cx="265.35647" cy="357.71937" rx="8.8567" ry="10.19466" transform="rotate(-56.364 22.195 492.476)" fill="#ccc" d="M162.648 212.179A5.253 6.047 0 0 1 157.394 218.226A5.253 6.047 0 0 1 152.141 212.179A5.253 6.047 0 0 1 162.648 212.179z"/><path cx="842.29847" cy="504.78842" rx="8.8567" ry="10.19466" transform="rotate(-56.364 599.137 639.545)" fill="#ccc" d="M504.857 299.412A5.253 6.047 0 0 1 499.604 305.459A5.253 6.047 0 0 1 494.35 299.412A5.253 6.047 0 0 1 504.857 299.412z"/></svg>