<svg xmlns="http://www.w3.org/2000/svg" width="250" height="157.689" viewBox="0 0 250 157.689" xmlns:xlink="http://www.w3.org/1999/xlink" role="img" artist="Katerina Limpitsouni" source="https://undraw.co/"><path d="M182.417 38.402c0 15.129 -23.648 59.745 -37.207 84.083a10.609 10.609 0 0 1 -18.538 0c-13.559 -24.338 -37.207 -68.954 -37.207 -84.083C89.466 17.193 110.273 0 135.941 0s46.476 17.193 46.476 38.402" fill="#f59e0b"/><path cx="312.01198" cy="87" r="58" fill="#fff" d="M161.47 37.966a25.311 25.311 0 0 1 -25.311 25.311 25.311 25.311 0 0 1 -25.311 -25.311 25.311 25.311 0 0 1 50.621 0"/><path cx="69.98172" cy="104.73964" r="34.73965" fill="#ff6584" d="M45.699 45.707a15.161 15.161 0 0 1 -15.16 15.161 15.161 15.161 0 0 1 -15.16 -15.161 15.16 15.16 0 0 1 30.32 0"/><path cx="311.51198" cy="354.85574" rx="84.09209" ry="6.49158" fill="#f59e0b" d="M172.638 154.856a36.697 2.833 0 0 1 -36.697 2.833 36.697 2.833 0 0 1 -36.697 -2.833 36.697 2.833 0 0 1 73.394 0"/><path cx="356.74039" cy="401.75807" r="19.98596" transform="rotate(-80.783 41.683 451.368)" fill="#f59e0b" opacity="0.4" style="isolation:isolate" d="M164.4 175.324a8.722 8.722 0 0 1 -8.722 8.722 8.722 8.722 0 0 1 -8.722 -8.722 8.722 8.722 0 0 1 17.443 0"/><path d="M222.896 102.783c-68.684 -25.747 -152.453 -0.646 -200.818 50.7 -0.275 0.288 -0.55 0.581 -0.816 0.873h-0.738c0.253 -0.292 0.515 -0.585 0.772 -0.873 49.369 -55.252 132.026 -77.272 201.6 -50.7" fill="#3f3d56"/><path d="M241.665 111.323a163.889 163.889 0 0 0 -18.769 -8.54 148.889 148.889 0 0 1 18.769 8.54" fill="#3f3d56"/><path cx="467.6406" cy="174.31504" r="21.92017" fill="#f59e0b" opacity="0.4" style="isolation:isolate" d="M213.64 76.069a9.567 9.567 0 0 1 -9.566 9.566 9.567 9.567 0 0 1 -9.566 -9.566 9.566 9.566 0 0 1 19.132 0"/><path d="M205.139 149.648c0.739 2.733 3.272 4.425 3.272 4.425s1.333 -2.738 0.594 -5.471 -3.271 -4.425 -3.271 -4.425 -1.333 2.738 -0.594 5.471" fill="#3f3d56"/><path d="M206.226 149.061c2.029 1.974 2.277 5.01 2.277 5.01s-3.041 -0.166 -5.069 -2.14 -2.276 -5.01 -2.276 -5.01 3.041 0.166 5.069 2.141" fill="#f59e0b"/><path d="M1.466 111.653v4.216l-0.209 0.227v-4.486c0.07 0.013 0.139 0.031 0.209 0.044" fill="#3f3d56"/><path d="M14.898 153.481c-0.061 0.101 -0.127 0.201 -0.192 0.301H1.257v-41.92l0.209 -0.209 1.785 2.029v-2.967h5.673v9.417l5.73 6.507 0.052 0.061q0.104 0.328 0.201 0.654a0.017 0.017 0 0 0 0.004 0.009 77.222 77.222 0 0 1 2.112 8.374c1.248 6.672 1.061 12.791 -2.125 17.744" fill="#ccc"/><path x="5.4271" y="308.95298" width="8.27446" height="6.89539" fill="#3f3d56" d="M2.368 134.824h3.611v3.009h-3.611z"/><path x="5.4271" y="321.36466" width="8.27446" height="6.89539" fill="#3f3d56" d="M2.368 140.241h3.611v3.009h-3.611z"/><path d="m117.209 129.107 -1.806 -3.009 16.851 -14.444c12.458 -5.997 27.474 -4.266 43.331 0v4.212l-15.647 16.851 -18.055 3.611Z" fill="#3f3d56"/><path d="M183.044 120.131c2.993 -3.329 3.408 -6.493 0 -9.416h-5.673v2.969l-1.785 -2.029 -14.444 14.444 -2.408 2.407 -3.009 12.037 5.417 13.239h27.683V126.7Z" fill="#ccc"/><path d="M115.404 126.098h45.738v27.684h-45.738c-5.533 -5.987 -2.658 -16.898 0 -27.684" fill="#f2f2f2"/><path x="332.71515" y="308.95298" width="22.06525" height="19.30707" fill="#3f3d56" d="M145.194 134.824h9.629v8.426h-9.629z"/><path x="304.4441" y="308.26344" width="19.30707" height="44.1304" fill="#ccc" d="M132.857 134.523h8.426v19.258h-8.426z"/><path points="282.379 315.159 282.379 308.264 274.105 308.264 274.105 315.159 281.689 315.159 282.379 315.159" fill="#3f3d56" d="M123.228 137.533v-3.009h-3.611v3.009h3.611"/><path points="281.689 320.675 274.105 320.675 274.105 327.571 282.379 327.571 282.379 320.675 281.689 320.675" fill="#3f3d56" d="M122.927 139.94h-3.309v3.009h3.611v-3.009z"/><path x="287.89515" y="308.26344" width="8.27448" height="6.89539" fill="#3f3d56" d="M125.635 134.523h3.611v3.009h-3.611z"/><path x="287.89515" y="320.67512" width="8.27448" height="6.89539" fill="#3f3d56" d="M125.635 139.94h3.611v3.009h-3.611z"/><path points="398.911 315.849 398.911 308.953 390.636 308.953 390.636 315.849 398.221 315.849 398.911 315.849" fill="#3f3d56" d="M174.081 137.834v-3.009h-3.611v3.009h3.611"/><path points="398.221 321.365 390.636 321.365 390.636 328.26 398.911 328.26 398.911 321.365 398.221 321.365" fill="#3f3d56" d="M173.78 140.241h-3.31v3.009h3.611v-3.009z"/><path x="404.42707" y="308.95298" width="8.27448" height="6.89539" fill="#3f3d56" d="M176.488 134.824h3.611v3.009h-3.611z"/><path x="404.42707" y="321.36466" width="8.27448" height="6.89539" fill="#3f3d56" d="M176.488 140.241h3.611v3.009h-3.611z"/><path points="81.966 180.01 75.071 174.493 113.685 140.016 211.599 140.016 211.599 170.356 148.162 213.108 81.966 180.01" fill="#3f3d56" d="m35.769 78.555 -3.009 -2.408L49.611 61.102h42.729v13.24l-27.683 18.657z"/><path d="M100.13 69.542v-8.139h-5.673v1.993l-2.117 -2.294 -13.842 15.046 -5.416 3.611 -8.398 61.358 12.666 12.666h29.434c4.51 -22.687 8.086 -45.993 0 -77.033Z" fill="#ccc"/><path d="M32.76 76.147h45.738v77.634H32.76c-5.005 -30.16 -7.449 -58.129 0 -77.634" fill="#f2f2f2"/><path x="115.75318" y="308.95298" width="19.30707" height="43.44092" fill="#ccc" d="M50.514 134.824h8.425v18.957H50.514z"/><path points="95.067 321.365 95.067 314.47 86.793 314.47 86.793 321.365 94.378 321.365 95.067 321.365" fill="#3f3d56" d="M41.487 140.241v-3.009h-3.611v3.009h3.611"/><path points="94.378 326.881 86.793 326.881 86.793 333.777 95.067 333.777 95.067 326.881 94.378 326.881" fill="#3f3d56" d="M41.186 142.648h-3.31v3.009h3.611v-3.009z"/><path x="100.58335" y="314.46928" width="8.27444" height="6.89539" fill="#3f3d56" d="M43.894 137.232h3.611v3.009h-3.611z"/><path points="150.92 326.881 143.335 326.881 143.335 333.777 151.609 333.777 151.609 326.881 150.92 326.881" fill="#3f3d56" d="M65.86 142.648h-3.31v3.009h3.611v-3.009z"/><path x="157.12546" y="314.46928" width="8.27444" height="6.89539" fill="#3f3d56" d="M68.568 137.232h3.611v3.009h-3.611z"/><path x="157.12546" y="326.88096" width="8.27444" height="6.89539" fill="#3f3d56" d="M68.568 142.648h3.611v3.009h-3.611z"/><path points="209.53 183.457 209.53 176.562 201.256 176.562 201.256 183.457 208.841 183.457 209.53 183.457" fill="#3f3d56" d="M91.437 80.059v-3.009h-3.611v3.009h3.611"/><path points="208.841 188.974 201.256 188.974 201.256 195.869 209.53 195.869 209.53 188.974 208.841 188.974" fill="#3f3d56" d="M91.137 82.467h-3.31v3.009h3.611v-3.009z"/><path x="215.04667" y="176.56168" width="8.27444" height="6.89539" fill="#3f3d56" d="M93.844 77.05h3.611v3.009h-3.611z"/><path x="215.04667" y="188.97334" width="8.27444" height="6.89539" fill="#3f3d56" d="M93.844 82.466h3.611v3.009h-3.611z"/><path points="209.53 222.072 209.53 215.176 201.256 215.176 201.256 222.072 208.841 222.072 209.53 222.072" fill="#3f3d56" d="M91.437 96.911v-3.009h-3.611v3.009h3.611"/><path points="208.841 227.588 201.256 227.588 201.256 234.483 209.53 234.483 209.53 227.588 208.841 227.588" fill="#3f3d56" d="M91.137 99.317h-3.31v3.009h3.611v-3.009z"/><path x="215.04667" y="215.17579" width="8.27444" height="6.89539" fill="#3f3d56" d="M93.844 93.901h3.611v3.009h-3.611z"/><path x="215.04667" y="227.58747" width="8.27444" height="6.89539" fill="#3f3d56" d="M93.844 99.317h3.611v3.009h-3.611z"/><path points="209.53 260.686 209.53 253.79 201.256 253.79 201.256 260.686 208.841 260.686 209.53 260.686" fill="#3f3d56" d="M91.437 113.761v-3.009h-3.611v3.009h3.611"/><path points="208.841 266.202 201.256 266.202 201.256 273.097 209.53 273.097 209.53 266.202 208.841 266.202" fill="#3f3d56" d="M91.137 116.168h-3.31v3.009h3.611v-3.009z"/><path x="215.04667" y="253.78992" width="8.27444" height="6.89539" fill="#3f3d56" d="M93.844 110.752h3.611v3.009h-3.611z"/><path x="215.04667" y="266.20161" width="8.27444" height="6.89539" fill="#3f3d56" d="M93.844 116.168h3.611v3.009h-3.611z"/><path points="209.53 299.3 209.53 292.404 201.256 292.404 201.256 299.3 208.841 299.3 209.53 299.3" fill="#3f3d56" d="M91.437 130.612v-3.009h-3.611v3.009h3.611"/><path points="208.841 304.816 201.256 304.816 201.256 311.711 209.53 311.711 209.53 304.816 208.841 304.816" fill="#3f3d56" d="M91.137 133.019h-3.31v3.009h3.611v-3.009z"/><path x="215.04667" y="292.40406" width="8.27444" height="6.89539" fill="#3f3d56" d="M93.844 127.603h3.611v3.009h-3.611z"/><path x="215.04667" y="304.81574" width="8.27444" height="6.89539" fill="#3f3d56" d="M93.844 133.019h3.611v3.009h-3.611z"/><path d="M37.876 80.059h34.905v7.222c-11.188 -3.088 -22.856 -2.866 -34.905 0Z" fill="#3f3d56"/><path d="M37.876 94.503q16.342 4.814 34.905 0v7.222H37.876Z" fill="#3f3d56"/><path d="M37.876 108.947h34.905v7.222c-11.896 -3.799 -23.543 -3.978 -34.905 0Z" fill="#3f3d56"/><path d="M37.876 123.389c11.384 4.387 23.029 4.205 34.905 0v7.222H37.876Z" fill="#3f3d56"/><path d="M225.475 110.843H250v11.817l-2.191 0.685 -7.288 2.274 -11.433 -2.648 -11.421 -2.646 -6.031 -1.397 -3.011 -1.114c2.505 -3.437 7.061 -6.14 16.849 -6.971" fill="#3f3d56"/><path d="M250 117.815v35.967h-41.374c-0.013 -0.022 -0.022 -0.042 -0.035 -0.064v-0.002a0.556 0.556 0 0 0 -0.035 -0.072q-0.969 -1.95 -1.737 -3.89c-4.342 -10.944 -3.871 -21.599 1.807 -31.938Z" fill="#f2f2f2"/><path x="518.75318" y="308.95298" width="19.30707" height="43.44092" fill="#ccc" d="M226.379 134.824h8.426v18.957h-8.426z"/><path points="498.067 321.365 498.067 314.47 489.793 314.47 489.793 321.365 497.378 321.365 498.067 321.365" fill="#3f3d56" d="M217.352 140.241v-3.009h-3.611v3.009h3.611"/><path points="497.378 326.881 489.793 326.881 489.793 333.777 498.067 333.777 498.067 326.881 497.378 326.881" fill="#3f3d56" d="M217.052 142.648h-3.31v3.009h3.611v-3.009z"/><path x="503.58332" y="314.46928" width="8.27448" height="6.89539" fill="#3f3d56" d="M219.759 137.232h3.611v3.009h-3.611z"/><path x="503.58332" y="326.88096" width="8.27448" height="6.89539" fill="#3f3d56" d="M219.759 142.648h3.611v3.009h-3.611z"/><path points="554.609 321.365 554.609 314.47 546.335 314.47 546.335 321.365 553.92 321.365 554.609 321.365" fill="#3f3d56" d="M242.027 140.241v-3.009h-3.611v3.009h3.611"/><path points="553.92 326.881 546.335 326.881 546.335 333.777 554.609 333.777 554.609 326.881 553.92 326.881" fill="#3f3d56" d="M241.726 142.648h-3.31v3.009h3.611v-3.009z"/><path x="560.12543" y="314.46928" width="8.27448" height="6.89539" fill="#3f3d56" d="M244.434 137.232h3.611v3.009h-3.611z"/><path x="560.12543" y="326.88096" width="8.27448" height="6.89539" fill="#3f3d56" d="M244.434 142.648h3.611v3.009h-3.611z"/><path d="M217.669 96.879h5.187a19.289 19.289 0 0 1 19.289 19.289h-24.476Z" fill="#3f3d56"/><path d="M60.568 44.512h5.187a19.289 19.289 0 0 1 19.289 19.289h-24.476Z" fill="#3f3d56"/><path d="M143.482 92.951h5.187a19.289 19.289 0 0 1 19.289 19.289h-24.476Z" fill="#3f3d56"/><path x="498.79261" y="282.75053" width="56.0874" height="16.54892" fill="#3f3d56" d="M217.669 123.39h24.476v7.222h-24.476z"/><path x="2.88018" y="351.70996" width="570" height="2" fill="#3f3d56" d="M1.257 153.483H250v0.873H1.257z"/><path x="53.45087" y="272.7053" width="2" height="79" fill="#3f3d56" d="M23.326 119.006h0.873v34.475h-0.873z"/><path d="M32.253 123.399c0.056 12.055 -8.426 21.867 -8.426 21.867s-10.862 -9.941 -8.628 -21.788c2.247 -11.913 9.252 -21.816 8.426 -21.867 0 0 8.571 9.733 8.627 21.788" fill="#f59e0b"/><path x="253.45087" y="272.7053" width="2" height="79" fill="#3f3d56" d="M110.604 119.006h0.873v34.475h-0.873z"/><path d="M119.532 123.399c0.786 12.029 -8.426 21.867 -8.426 21.867s-8.572 -9.733 -8.627 -21.788 8.426 -21.867 8.426 -21.867c-0.827 3.304 7.991 12.055 8.627 21.788" fill="#f59e0b"/><path points="125.513 144.289 212.387 140.039 248.83 170.458 242.387 176.275 184.678 174.976 125.513 144.289" fill="#3f3d56" d="m54.773 62.967 37.911 -1.855 15.903 13.275 -2.812 2.538 -25.184 -0.567z"/><path d="m16.945 124.57 -2.042 1.846 -0.249 0.223 -0.519 0.471 -12.878 -0.288v-15.213q-0.628 -0.137 -1.257 -0.262l1.043 -0.052 0.214 0.179 1.994 1.663 5.673 4.739 6.337 5.289Z" fill="#3f3d56"/><path points="315.513 259.289 402.387 255.039 438.83 285.458 432.387 291.275 374.678 289.976 315.513 259.289" fill="#3f3d56" d="m137.687 113.152 37.911 -1.855 15.903 13.275 -2.812 2.538 -25.184 -0.567z"/></svg>